<svg width="105" height="96" viewBox="0 0 105 96" fill="none" xmlns="http://www.w3.org/2000/svg">
<path d="M51.5775 81.2687C36.5642 107.369 20.9576 93.8822 11.9753 77.0724L4.99782 62.3096C-5.63642 35.1122 4.99782 -10.1201 33.9658 2.16022C61.0354 13.6358 87.1666 -0.111258 100.371 15.4412C107.348 23.6598 104.124 42.9655 92.7678 44.6979C81.4116 46.4302 70.3441 48.6437 51.5775 81.2687Z" fill="#593BD1" fill-opacity="0.4"/>
<path d="M18.0442 26.3907C23.5298 15.0345 38.3818 15.4681 44.6062 17.1518C56.3473 20.3277 62.8916 27.6418 63.5652 37.0733C64.5449 50.7884 52.2091 57.1872 36.9071 59.7857C21.6051 62.3841 12.8804 37.0807 18.0442 26.3907Z" fill="#FA6501" fill-opacity="0.8"/>
<path d="M37.6269 32.9353C40.0946 27.8349 46.7757 28.0296 49.5757 28.7858C54.8574 30.2122 57.8013 33.4972 58.1043 37.7331C58.545 43.8929 52.9958 46.7668 46.1123 47.9338C39.2287 49.1009 35.304 37.7364 37.6269 32.9353Z" fill="#FEDC78" fill-opacity="0.8"/>
<path fill-rule="evenodd" clip-rule="evenodd" d="M64.1765 41.4988L76.7025 46.1137C78.4343 46.7516 79.9103 47.2953 80.9806 47.8803C82.102 48.4932 83.1649 49.3556 83.4842 50.8096C83.8034 52.2636 83.1998 53.492 82.4386 54.5183C81.7121 55.4982 80.5997 56.6103 79.2947 57.9151L77.6882 59.5218L85.3926 67.2263C85.8201 67.6538 86.199 68.0327 86.4931 68.3697C86.8056 68.7282 87.1046 69.1293 87.3101 69.6252C87.7639 70.721 87.7639 71.9522 87.3101 73.0482C87.1046 73.5438 86.8056 73.9452 86.4931 74.3034C86.199 74.6407 85.8201 75.0196 85.3926 75.4469L85.3193 75.5202C84.892 75.9477 84.5131 76.3266 84.1758 76.6207C83.8176 76.9332 83.4162 77.2323 82.9205 77.4377C81.8246 77.8915 80.5934 77.8915 79.4976 77.4377C79.0017 77.2323 78.6005 76.9332 78.2421 76.6207C77.9051 76.3266 77.5262 75.9477 77.0987 75.5202L69.3942 67.8158L67.7875 69.4223C66.4827 70.7273 65.3706 71.8397 64.3907 72.5662C63.3644 73.3274 62.136 73.9311 60.682 73.6118C59.228 73.2925 58.3656 72.2296 57.7527 71.1082C57.1677 70.0379 56.6239 68.5619 55.9861 66.8301L51.3712 54.3041C50.0642 50.7567 49.0171 47.9147 48.5525 45.7254C48.0885 43.5392 48.0619 41.3665 49.6504 39.778C51.2389 38.1895 53.4116 38.2161 55.5978 38.6801C57.7871 39.1447 60.6291 40.1918 64.1765 41.4988ZM54.8971 41.9816C52.944 41.567 52.3383 41.8631 52.0369 42.1645C51.7355 42.4659 51.4394 43.0716 51.8539 45.0247C52.2616 46.9458 53.2193 49.5577 54.59 53.2783L59.1071 65.539C59.8037 67.4297 60.2638 68.6656 60.7142 69.4896C61.1366 70.2622 61.3568 70.3056 61.4021 70.3146L61.406 70.3153L61.4099 70.3162C61.4548 70.3272 61.6729 70.3801 62.3802 69.8554C63.1345 69.2961 64.0701 68.3668 65.495 66.9419L68.2008 64.236C68.8598 63.577 69.9284 63.577 70.5874 64.236L79.4486 73.0972C79.9235 73.5722 80.2208 73.8681 80.4606 74.0773C80.6892 74.2767 80.7731 74.3129 80.7891 74.3196C81.058 74.431 81.3602 74.431 81.6291 74.3196C81.645 74.3129 81.729 74.2767 81.9573 74.0773C82.1972 73.8681 82.4944 73.5722 82.9696 73.0972C83.4446 72.622 83.7405 72.3248 83.9497 72.0849C84.1491 71.8566 84.1853 71.7726 84.192 71.7567C84.3034 71.4878 84.3034 71.1856 84.192 70.9167C84.1853 70.9008 84.1491 70.8168 83.9497 70.5882C83.7405 70.3484 83.4446 70.0512 82.9696 69.5762L74.1084 60.715C73.4494 60.056 73.4494 58.9875 74.1084 58.3284L76.8143 55.6226C78.2392 54.1977 79.1685 53.2621 79.7278 52.5078C80.2525 51.8005 80.1996 51.5824 80.1886 51.5375L80.1877 51.5336L80.187 51.5297C80.178 51.4844 80.1346 51.2642 79.3619 50.8418C78.538 50.3914 77.3021 49.9313 75.4114 49.2347L63.1507 44.7177C59.4301 43.3469 56.8182 42.3893 54.8971 41.9816Z" fill="#1C274C"/>
</svg>
