<svg width="115" height="125" viewBox="0 0 115 125" fill="none" xmlns="http://www.w3.org/2000/svg">
<path d="M98.8903 31.0202C70.1249 36.5496 12.851 35.0855 16.2551 57.7457C18.6087 73.4123 71.6939 66.9613 67.2484 107.971" stroke="#EE7430" stroke-width="3"/>
<path fill-rule="evenodd" clip-rule="evenodd" d="M72.9346 106.411L77.8027 108.305C78.4757 108.566 79.0493 108.789 79.4653 109.029C79.9011 109.281 80.3142 109.635 80.4383 110.231C80.5624 110.828 80.3278 111.331 80.032 111.753C79.7496 112.154 79.3173 112.611 78.8101 113.146L78.1857 113.805L81.18 116.966C81.3461 117.141 81.4934 117.297 81.6077 117.435C81.7292 117.582 81.8454 117.746 81.9252 117.95C82.1016 118.399 82.1016 118.904 81.9252 119.354C81.8454 119.557 81.7292 119.722 81.6077 119.869C81.4934 120.007 81.3461 120.163 81.18 120.338L81.1515 120.368C80.9854 120.544 80.8382 120.699 80.7071 120.82C80.5679 120.948 80.4119 121.07 80.2193 121.155C79.7933 121.341 79.3148 121.341 78.889 121.155C78.6962 121.07 78.5403 120.948 78.401 120.82C78.27 120.699 78.1228 120.544 77.9566 120.368L74.9624 117.208L74.3379 117.867C73.8309 118.402 73.3986 118.858 73.0178 119.156C72.619 119.469 72.1415 119.716 71.5764 119.585C71.0114 119.454 70.6762 119.018 70.438 118.558C70.2107 118.119 69.9993 117.514 69.7514 116.803L67.9579 111.665C67.45 110.209 67.043 109.043 66.8624 108.145C66.6821 107.249 66.6718 106.357 67.2891 105.706C67.9065 105.054 68.7509 105.065 69.6005 105.255C70.4514 105.446 71.5559 105.875 72.9346 106.411ZM69.3282 106.61C68.5691 106.439 68.3338 106.561 68.2166 106.685C68.0995 106.808 67.9844 107.057 68.1455 107.858C68.304 108.646 68.6761 109.718 69.2089 111.244L70.9644 116.274C71.2351 117.049 71.4139 117.556 71.589 117.894C71.7531 118.211 71.8387 118.229 71.8563 118.233L71.8578 118.233L71.8594 118.233C71.8768 118.238 71.9615 118.26 72.2365 118.044C72.5296 117.815 72.8932 117.434 73.447 116.849L74.4986 115.739C74.7547 115.469 75.17 115.469 75.4261 115.739L78.8699 119.374C79.0545 119.569 79.17 119.69 79.2632 119.776C79.3521 119.858 79.3847 119.873 79.3909 119.876C79.4954 119.921 79.6128 119.921 79.7173 119.876C79.7235 119.873 79.7562 119.858 79.8449 119.776C79.9381 119.69 80.0536 119.569 80.2383 119.374C80.4229 119.179 80.5379 119.057 80.6192 118.959C80.6967 118.865 80.7108 118.831 80.7134 118.824C80.7567 118.714 80.7567 118.59 80.7134 118.48C80.7108 118.473 80.6967 118.439 80.6192 118.345C80.5379 118.247 80.4229 118.125 80.2383 117.93L76.7945 114.295C76.5384 114.024 76.5384 113.586 76.7945 113.316L77.8461 112.206C78.3999 111.621 78.761 111.237 78.9784 110.928C79.1823 110.638 79.1618 110.548 79.1575 110.53L79.1572 110.528L79.1569 110.526C79.1534 110.508 79.1365 110.418 78.8362 110.244C78.516 110.06 78.0357 109.871 77.3009 109.585L72.5359 107.732C71.0899 107.17 70.0748 106.777 69.3282 106.61Z" fill="#1C274C"/>
<g clip-path="url(#clip0_237_162)">
<path d="M53.137 67.8513C52.6497 67.8513 52.2452 67.4561 52.2452 66.9682C52.2452 66.4798 52.6316 66.0849 53.1197 66.0849H53.137C53.253 66.0848 53.3679 66.1076 53.4751 66.152C53.5823 66.1964 53.6797 66.2614 53.7617 66.3435C53.8437 66.4255 53.9088 66.5229 53.9532 66.6301C53.9975 66.7373 54.0203 66.8522 54.0203 66.9682C54.0203 67.0842 53.9974 67.199 53.953 67.3062C53.9086 67.4134 53.8436 67.5107 53.7616 67.5927C53.6795 67.6747 53.5821 67.7398 53.475 67.7842C53.3678 67.8285 53.2529 67.8513 53.137 67.8513ZM5.44714 20.1613C4.95986 20.1613 4.55542 19.7661 4.55542 19.2779C4.55542 18.79 4.94175 18.3948 5.42991 18.3948H5.44714C5.56313 18.3948 5.67799 18.4176 5.78516 18.4619C5.89233 18.5063 5.98971 18.5713 6.07172 18.6534C6.15374 18.7354 6.21879 18.8328 6.26315 18.9399C6.30751 19.0471 6.33031 19.162 6.33025 19.2779C6.33034 19.394 6.30756 19.5088 6.26321 19.616C6.21886 19.7232 6.15382 19.8206 6.0718 19.9027C5.98978 19.9847 5.8924 20.0498 5.78521 20.0941C5.67803 20.1385 5.56315 20.1613 5.44714 20.1613ZM8.9798 20.1613C8.49252 20.1613 8.08807 19.7661 8.08807 19.2779C8.08807 18.79 8.4744 18.3948 8.96257 18.3948H8.9798C9.09578 18.3948 9.21064 18.4176 9.31781 18.4619C9.42498 18.5063 9.52236 18.5713 9.60438 18.6534C9.68639 18.7354 9.75144 18.8328 9.7958 18.9399C9.84016 19.0471 9.86296 19.162 9.8629 19.2779C9.86299 19.394 9.84021 19.5088 9.79586 19.616C9.75152 19.7232 9.68647 19.8206 9.60445 19.9027C9.52244 19.9847 9.42505 20.0498 9.31787 20.0941C9.21068 20.1385 9.0958 20.1613 8.9798 20.1613ZM12.5124 20.1613C12.0252 20.1613 11.6207 19.7661 11.6207 19.2779C11.6207 18.79 12.0071 18.3948 12.4952 18.3948H12.5124C12.6284 18.3948 12.7433 18.4176 12.8505 18.4619C12.9576 18.5063 13.055 18.5713 13.137 18.6534C13.219 18.7354 13.2841 18.8328 13.3285 18.9399C13.3728 19.0471 13.3956 19.162 13.3956 19.2779C13.3956 19.394 13.3729 19.5088 13.3285 19.616C13.2842 19.7232 13.2191 19.8206 13.1371 19.9027C13.0551 19.9847 12.9577 20.0498 12.8505 20.0941C12.7433 20.1385 12.6285 20.1613 12.5124 20.1613Z" fill="black"/>
<path d="M113.138 97.8781H1.86187C1.74587 97.8782 1.631 97.8554 1.52381 97.8111C1.41663 97.7667 1.31924 97.7017 1.23722 97.6196C1.1552 97.5376 1.09015 97.4402 1.04581 97.3331C1.00146 97.2259 0.978673 97.111 0.97876 96.995V21.0444C0.978673 20.9284 1.00146 20.8135 1.04581 20.7063C1.09015 20.5992 1.1552 20.5018 1.23722 20.4197C1.31924 20.3377 1.41663 20.2727 1.52381 20.2283C1.631 20.184 1.74587 20.1612 1.86187 20.1613H113.138C113.254 20.1612 113.369 20.184 113.476 20.2283C113.584 20.2727 113.681 20.3377 113.763 20.4197C113.845 20.5018 113.91 20.5992 113.954 20.7063C113.999 20.8135 114.022 20.9284 114.021 21.0444V96.995C114.022 97.111 113.999 97.2259 113.954 97.3331C113.91 97.4402 113.845 97.5376 113.763 97.6196C113.681 97.7017 113.584 97.7667 113.476 97.8111C113.369 97.8554 113.254 97.8782 113.138 97.8781ZM2.74498 96.1119H112.255V21.9275H2.74498V96.1119Z" fill="black"/>
<path d="M113.138 21.9275H1.86187C1.74587 21.9276 1.631 21.9048 1.52381 21.8604C1.41663 21.8161 1.31924 21.7511 1.23722 21.669C1.1552 21.587 1.09015 21.4896 1.04581 21.3824C1.00146 21.2753 0.978673 21.1604 0.97876 21.0444V19.2779C0.97876 17.817 2.16713 16.6284 3.62808 16.6284H111.372C112.833 16.6284 114.021 17.817 114.021 19.2779V21.0444C114.021 21.1604 113.999 21.2752 113.954 21.3824C113.91 21.4896 113.845 21.587 113.763 21.669C113.681 21.751 113.584 21.8161 113.476 21.8604C113.369 21.9048 113.254 21.9276 113.138 21.9275ZM2.74498 20.1613H112.255V19.2779C112.255 19.0439 112.161 18.8195 111.996 18.654C111.83 18.4885 111.606 18.3953 111.372 18.3948H3.62808C3.39396 18.3951 3.16951 18.4883 3.00396 18.6538C2.8384 18.8194 2.74527 19.0438 2.74498 19.2779V20.1613ZM107.839 44.8892H7.16074C7.04474 44.8893 6.92987 44.8665 6.82268 44.8221C6.7155 44.7778 6.61811 44.7127 6.53609 44.6307C6.45407 44.5487 6.38902 44.4513 6.34467 44.3441C6.30032 44.2369 6.27754 44.1221 6.27763 44.0061V26.3433C6.27757 26.2273 6.30037 26.1124 6.34473 26.0052C6.38909 25.8981 6.45414 25.8007 6.53616 25.7187C6.61817 25.6367 6.71555 25.5716 6.82272 25.5273C6.92989 25.4829 7.04475 25.4601 7.16074 25.4601H107.839C107.955 25.4601 108.07 25.4829 108.177 25.5273C108.284 25.5716 108.382 25.6367 108.464 25.7187C108.546 25.8007 108.611 25.8981 108.655 26.0052C108.7 26.1124 108.722 26.2273 108.722 26.3433V44.0061C108.722 44.1221 108.7 44.2369 108.655 44.3441C108.611 44.4512 108.546 44.5486 108.464 44.6306C108.382 44.7127 108.285 44.7777 108.177 44.8221C108.07 44.8664 107.955 44.8892 107.839 44.8892ZM8.04407 43.123H106.956V27.2264H8.04407V43.123Z" fill="black"/>
<path d="M93.709 34.2917H21.2911C21.1751 34.2917 21.0602 34.2689 20.9531 34.2246C20.8459 34.1802 20.7485 34.1152 20.6665 34.0331C20.5845 33.9511 20.5194 33.8538 20.4751 33.7466C20.4307 33.6394 20.4079 33.5246 20.408 33.4086C20.4079 33.2926 20.4307 33.1777 20.475 33.0705C20.5194 32.9633 20.5844 32.8659 20.6664 32.7838C20.7484 32.7018 20.8458 32.6367 20.953 32.5924C21.0602 32.548 21.1751 32.5252 21.2911 32.5252H93.709C93.825 32.5252 93.9399 32.548 94.0471 32.5924C94.1543 32.6367 94.2517 32.7018 94.3337 32.7838C94.4157 32.8659 94.4808 32.9633 94.5251 33.0705C94.5695 33.1777 94.5922 33.2926 94.5921 33.4086C94.5922 33.5246 94.5694 33.6394 94.525 33.7466C94.4807 33.8538 94.4156 33.9511 94.3336 34.0331C94.2516 34.1152 94.1542 34.1802 94.0471 34.2246C93.9399 34.2689 93.825 34.2917 93.709 34.2917ZM76.0462 37.8241H38.9541C38.466 37.8241 38.0708 37.4292 38.0708 36.941C38.0708 36.4528 38.466 36.0579 38.9541 36.0579H76.0462C76.5344 36.0579 76.9293 36.4528 76.9293 36.941C76.9293 37.4292 76.5344 37.8241 76.0462 37.8241ZM107.839 59.0196H7.1607C7.0447 59.0197 6.92982 58.9969 6.82264 58.9525C6.71546 58.9082 6.61807 58.8431 6.53605 58.7611C6.45403 58.6791 6.38898 58.5817 6.34463 58.4745C6.30028 58.3674 6.2775 58.2525 6.27759 58.1365V49.3052C6.2775 49.1892 6.30028 49.0743 6.34463 48.9671C6.38898 48.8599 6.45403 48.7626 6.53605 48.6805C6.61807 48.5985 6.71546 48.5335 6.82264 48.4891C6.92982 48.4448 7.0447 48.422 7.1607 48.4221H107.839C107.955 48.422 108.07 48.4448 108.177 48.4891C108.284 48.5335 108.382 48.5985 108.464 48.6805C108.546 48.7626 108.611 48.8599 108.655 48.9671C108.7 49.0743 108.722 49.1892 108.722 49.3052V58.1365C108.722 58.2525 108.7 58.3673 108.655 58.4745C108.611 58.5817 108.546 58.679 108.464 58.761C108.382 58.8431 108.285 58.9081 108.177 58.9525C108.07 58.9968 107.955 59.0196 107.839 59.0196ZM8.04402 57.2534H106.956V50.1883H8.04402V57.2534Z" fill="black"/>
<path d="M12.4597 57.2534C12.2753 57.2533 12.0956 57.1956 11.9458 57.0882C11.7959 56.9808 11.6834 56.8293 11.6241 56.6548L9.85763 51.4663C9.82016 51.3565 9.80469 51.2404 9.81211 51.1247C9.81953 51.0089 9.84969 50.8957 9.90088 50.7916C9.95206 50.6875 10.0233 50.5945 10.1104 50.5179C10.1975 50.4414 10.2989 50.3827 10.4087 50.3453C10.8702 50.1951 11.372 50.4368 11.5291 50.8973L13.2955 56.0857C13.333 56.1956 13.3485 56.3117 13.3411 56.4275C13.3336 56.5432 13.3035 56.6564 13.2523 56.7606C13.2011 56.8647 13.1299 56.9577 13.0428 57.0343C12.9556 57.1109 12.8542 57.1696 12.7444 57.207C12.6526 57.2374 12.5565 57.2531 12.4597 57.2534Z" fill="black"/>
<path d="M12.4587 57.2534C12.3083 57.2532 12.1604 57.2146 12.029 57.1412C11.8977 57.0679 11.7872 56.9622 11.7082 56.8341C11.6291 56.7061 11.5841 56.56 11.5773 56.4097C11.5705 56.2594 11.6023 56.1099 11.6695 55.9753L13.436 52.4426C13.6551 52.0079 14.1863 51.8268 14.621 52.0477C14.8305 52.1525 14.9898 52.3362 15.0639 52.5584C15.138 52.7807 15.1207 53.0232 15.016 53.2328L13.2497 56.7652C13.1762 56.9119 13.0632 57.0353 12.9235 57.1215C12.7838 57.2077 12.6229 57.2534 12.4587 57.2534Z" fill="black"/>
<path d="M15.993 57.2534C15.8289 57.2534 15.668 57.2077 15.5284 57.1215C15.3887 57.0353 15.2758 56.9119 15.2023 56.7652L13.4358 53.2325C13.3839 53.1288 13.353 53.0158 13.3448 52.9001C13.3365 52.7844 13.3512 52.6682 13.3879 52.5581C13.4246 52.4481 13.4826 52.3464 13.5586 52.2587C13.6347 52.1711 13.7272 52.0993 13.831 52.0475C14.2666 51.8266 14.7978 52.0077 15.0158 52.4424L16.7823 55.9751C16.8496 56.1097 16.8814 56.2593 16.8747 56.4096C16.868 56.56 16.823 56.7061 16.7439 56.8342C16.6649 56.9623 16.5544 57.068 16.4229 57.1414C16.2915 57.2147 16.1435 57.2533 15.993 57.2534Z" fill="black"/>
<path d="M15.9923 57.2533C15.9 57.2533 15.8061 57.2397 15.7129 57.2085C15.4908 57.1341 15.3073 56.9747 15.2027 56.7651C15.0981 56.5555 15.0809 56.313 15.155 56.0908L16.9212 50.792C16.9577 50.6818 17.0156 50.58 17.0916 50.4923C17.1675 50.4046 17.26 50.3327 17.3638 50.2808C17.4675 50.2289 17.5805 50.198 17.6962 50.1898C17.812 50.1816 17.9282 50.1963 18.0382 50.2331C18.2603 50.3075 18.4437 50.467 18.5483 50.6766C18.6529 50.8861 18.6701 51.1286 18.5962 51.3508L16.8297 56.6497C16.771 56.8254 16.6586 56.9782 16.5084 57.0865C16.3581 57.1948 16.1776 57.2532 15.9923 57.2533Z" fill="black"/>
<path d="M21.291 57.2534C21.1066 57.2533 20.9269 57.1956 20.7771 57.0882C20.6272 56.9808 20.5147 56.8293 20.4554 56.6548L18.6889 51.4663C18.6515 51.3565 18.636 51.2404 18.6434 51.1247C18.6508 51.0089 18.681 50.8957 18.7322 50.7916C18.7834 50.6875 18.8546 50.5945 18.9417 50.5179C19.0288 50.4414 19.1302 50.3827 19.24 50.3453C19.7048 50.1951 20.2033 50.4368 20.3604 50.8973L22.1266 56.0857C22.1641 56.1956 22.1796 56.3117 22.1722 56.4275C22.1648 56.5433 22.1346 56.6565 22.0835 56.7606C22.0323 56.8647 21.9611 56.9578 21.8739 57.0343C21.7867 57.1109 21.6853 57.1696 21.5755 57.207C21.4816 57.2379 21.3851 57.2534 21.291 57.2534Z" fill="black"/>
<path d="M21.2903 57.2534C21.1398 57.2532 20.9919 57.2146 20.8606 57.1412C20.7292 57.0679 20.6188 56.9622 20.5397 56.8341C20.4607 56.7061 20.4156 56.56 20.4089 56.4097C20.4021 56.2594 20.4338 56.1099 20.5011 55.9753L22.2675 52.4426C22.4855 52.0079 23.0161 51.8268 23.4523 52.0477C23.6618 52.1525 23.8212 52.3362 23.8953 52.5584C23.9694 52.7806 23.9522 53.0232 23.8475 53.2328L22.0811 56.7654C22.0075 56.9121 21.8946 57.0354 21.7549 57.1216C21.6153 57.2077 21.4544 57.2534 21.2903 57.2534Z" fill="black"/>
<path d="M24.8243 57.2534C24.6602 57.2534 24.4993 57.2077 24.3597 57.1215C24.22 57.0353 24.1071 56.9119 24.0335 56.7652L22.2673 53.2325C22.1626 53.023 22.1453 52.7805 22.2194 52.5582C22.2935 52.336 22.4528 52.1523 22.6623 52.0475C23.0994 51.8266 23.6282 52.0077 23.8473 52.4424L25.6138 55.9751C25.6811 56.1097 25.7128 56.2593 25.7061 56.4096C25.6993 56.56 25.6543 56.7061 25.5752 56.8342C25.4961 56.9622 25.3856 57.068 25.2542 57.1413C25.1228 57.2147 24.9748 57.2532 24.8243 57.2534Z" fill="black"/>
<path d="M24.8236 57.2534C24.7315 57.2534 24.6374 57.2397 24.5442 57.2085C24.3221 57.1341 24.1386 56.9746 24.034 56.7651C23.9294 56.5555 23.9122 56.3131 23.9862 56.0908L25.7526 50.792C25.7891 50.6818 25.847 50.58 25.9229 50.4923C25.9988 50.4046 26.0913 50.3327 26.1951 50.2808C26.2988 50.2289 26.4118 50.1979 26.5275 50.1898C26.6432 50.1816 26.7594 50.1963 26.8694 50.2331C27.0915 50.3075 27.275 50.467 27.3796 50.6766C27.4842 50.8861 27.5014 51.1286 27.4274 51.3508L25.661 56.6497C25.6023 56.8254 25.4899 56.9782 25.3396 57.0866C25.1894 57.1949 25.0088 57.2533 24.8236 57.2534Z" fill="black"/>
<path d="M30.1226 57.2534C29.9383 57.2533 29.7586 57.1956 29.6087 57.0882C29.4588 56.9808 29.3464 56.8293 29.287 56.6548L27.5208 51.4663C27.4833 51.3565 27.4678 51.2404 27.4752 51.1247C27.4826 51.0089 27.5128 50.8957 27.5639 50.7916C27.6151 50.6875 27.6863 50.5945 27.7735 50.5179C27.8607 50.4413 27.9621 50.3827 28.0719 50.3453C28.5351 50.1951 29.0352 50.4368 29.1922 50.8973L30.9584 56.0857C30.996 56.1956 31.0115 56.3117 31.004 56.4275C30.9966 56.5433 30.9665 56.6565 30.9153 56.7606C30.8641 56.8647 30.7929 56.9578 30.7057 57.0343C30.6186 57.1109 30.5172 57.1696 30.4073 57.207C30.3132 57.2379 30.2165 57.2534 30.1226 57.2534Z" fill="black"/>
<path d="M30.1217 57.2534C29.9713 57.2532 29.8234 57.2146 29.692 57.1413C29.5606 57.0679 29.4502 56.9622 29.3712 56.8342C29.2921 56.7061 29.2471 56.56 29.2404 56.4097C29.2337 56.2594 29.2654 56.1099 29.3327 55.9753L31.099 52.4426C31.3181 52.0079 31.8467 51.8268 32.284 52.0477C32.4935 52.1525 32.6528 52.3362 32.7269 52.5584C32.801 52.7806 32.7839 53.0232 32.6792 53.2328L30.9127 56.7654C30.8391 56.9121 30.7261 57.0354 30.5864 57.1216C30.4468 57.2077 30.2859 57.2534 30.1217 57.2534Z" fill="black"/>
<path d="M33.6561 57.2534C33.4919 57.2534 33.331 57.2077 33.1913 57.1215C33.0516 57.0353 32.9387 56.9119 32.8651 56.7652L31.0989 53.2325C30.9941 53.023 30.9769 52.7805 31.0509 52.5582C31.125 52.336 31.2843 52.1523 31.4938 52.0475C31.9294 51.8266 32.4589 52.0077 32.6789 52.4424L34.4451 55.9751C34.5125 56.1097 34.5444 56.2592 34.5377 56.4096C34.531 56.56 34.486 56.7061 34.407 56.8342C34.3279 56.9623 34.2174 57.068 34.086 57.1414C33.9546 57.2148 33.8066 57.2533 33.6561 57.2534Z" fill="black"/>
<path d="M33.6553 57.2534C33.5603 57.2536 33.4659 57.2385 33.3757 57.2085C33.1536 57.1341 32.9702 56.9746 32.8656 56.7651C32.761 56.5555 32.7438 56.313 32.8177 56.0908L34.5842 50.792C34.6206 50.6818 34.6785 50.58 34.7544 50.4922C34.8303 50.4045 34.9228 50.3326 35.0266 50.2807C35.1303 50.2288 35.2433 50.1978 35.359 50.1897C35.4748 50.1815 35.591 50.1963 35.701 50.2331C35.9231 50.3075 36.1066 50.467 36.2112 50.6765C36.3158 50.8861 36.333 51.1286 36.2589 51.3508L34.4927 56.6497C34.434 56.8254 34.3216 56.9781 34.1713 57.0865C34.0211 57.1948 33.8406 57.2532 33.6553 57.2534ZM100.774 55.4872C99.3132 55.4872 98.1249 54.2986 98.1249 52.8376C98.1249 51.3767 99.3132 50.1881 100.774 50.1881C102.235 50.1881 103.424 51.3764 103.424 52.8376C103.424 54.2986 102.235 55.4872 100.774 55.4872ZM100.774 51.9545C100.54 51.955 100.316 52.0482 100.15 52.2137C99.9847 52.3793 99.8915 52.6037 99.8911 52.8378C99.8911 53.3242 100.288 53.7209 100.774 53.7209C101.261 53.7209 101.657 53.3242 101.657 52.8378C101.657 52.6037 101.564 52.3793 101.398 52.2137C101.233 52.0482 101.008 51.955 100.774 51.9545Z" fill="black"/>
<path d="M104.307 57.2533C104.191 57.2534 104.076 57.2306 103.969 57.1863C103.862 57.1419 103.764 57.0768 103.682 56.9947L101.395 54.7076C101.05 54.3626 101.05 53.8037 101.395 53.4587C101.74 53.1137 102.299 53.1137 102.644 53.4587L104.931 55.7458C105.055 55.8693 105.139 56.0266 105.173 56.198C105.207 56.3693 105.19 56.5469 105.123 56.7083C105.056 56.8697 104.943 57.0077 104.798 57.1047C104.652 57.2017 104.481 57.2535 104.307 57.2533ZM49.5519 67.8513H7.1607C7.04471 67.8514 6.92985 67.8286 6.82268 67.7842C6.71551 67.7398 6.61813 67.6748 6.53611 67.5928C6.4541 67.5108 6.38905 67.4134 6.34469 67.3062C6.30033 67.199 6.27753 67.0842 6.27759 66.9682C6.2775 66.8522 6.30028 66.7373 6.34463 66.6301C6.38898 66.5229 6.45402 66.4255 6.53604 66.3435C6.61806 66.2614 6.71544 66.1964 6.82263 66.152C6.92981 66.1076 7.04469 66.0848 7.1607 66.0849H49.5516C49.6676 66.0848 49.7825 66.1076 49.8897 66.152C49.9969 66.1964 50.0943 66.2614 50.1763 66.3435C50.2583 66.4255 50.3234 66.5229 50.3677 66.6301C50.4121 66.7373 50.4348 66.8522 50.4347 66.9682C50.4348 67.0842 50.4121 67.199 50.3677 67.3062C50.3234 67.4134 50.2584 67.5107 50.1764 67.5928C50.0944 67.6748 49.997 67.7398 49.8898 67.7842C49.7827 67.8286 49.6678 67.8514 49.5519 67.8513ZM107.839 67.8513H95.4755C95.3594 67.8514 95.2446 67.8286 95.1374 67.7843C95.0302 67.7399 94.9328 67.6749 94.8507 67.5929C94.7687 67.5108 94.7036 67.4134 94.6593 67.3063C94.6149 67.1991 94.5921 67.0842 94.5921 66.9682C94.592 66.8522 94.6148 66.7373 94.6592 66.6301C94.7035 66.5229 94.7686 66.4254 94.8507 66.3434C94.9327 66.2614 95.0301 66.1963 95.1373 66.1519C95.2445 66.1076 95.3594 66.0848 95.4755 66.0849H107.839C107.955 66.0848 108.07 66.1076 108.177 66.152C108.285 66.1964 108.382 66.2614 108.464 66.3435C108.546 66.4255 108.611 66.5229 108.655 66.6301C108.7 66.7373 108.723 66.8522 108.723 66.9682C108.723 67.0842 108.7 67.199 108.655 67.3062C108.611 67.4133 108.546 67.5107 108.464 67.5927C108.382 67.6747 108.285 67.7398 108.177 67.7841C108.07 67.8285 107.955 67.8513 107.839 67.8513ZM84.8775 69.6175C84.7615 69.6176 84.6466 69.5948 84.5394 69.5504C84.4323 69.506 84.3349 69.4408 84.253 69.3586L82.4868 67.5924C82.1418 67.2474 82.1418 66.6886 82.4868 66.3437C82.8319 65.9989 83.3907 65.9987 83.7355 66.3437L85.5017 68.11C85.5838 68.1919 85.6488 68.2893 85.6932 68.3964C85.7376 68.5035 85.7605 68.6183 85.7605 68.7343C85.7605 68.8503 85.7376 68.9651 85.6932 69.0722C85.6488 69.1793 85.5838 69.2767 85.5017 69.3586C85.4199 69.4408 85.3226 69.506 85.2155 69.5505C85.1083 69.5949 84.9935 69.6177 84.8775 69.6175Z" fill="black"/>
<path d="M84.8775 69.6175C84.7615 69.6177 84.6466 69.5948 84.5394 69.5504C84.4323 69.506 84.3349 69.4408 84.253 69.3587C84.171 69.2767 84.106 69.1794 84.0616 69.0722C84.0172 68.9651 83.9943 68.8503 83.9943 68.7343C83.9943 68.6184 84.0172 68.5035 84.0616 68.3964C84.106 68.2893 84.171 68.192 84.253 68.11L87.7857 64.5773C87.8677 64.4953 87.965 64.4302 88.0721 64.3859C88.1793 64.3415 88.2941 64.3186 88.41 64.3186C88.526 64.3186 88.6408 64.3415 88.748 64.3859C88.8551 64.4302 88.9524 64.4953 89.0344 64.5773C89.1164 64.6593 89.1815 64.7567 89.2259 64.8638C89.2703 64.971 89.2931 65.0858 89.2931 65.2018C89.2931 65.3178 89.2703 65.4326 89.2259 65.5397C89.1815 65.6469 89.1164 65.7442 89.0344 65.8262L85.5017 69.3587C85.4199 69.4409 85.3226 69.506 85.2155 69.5505C85.1083 69.5949 84.9935 69.6177 84.8775 69.6175ZM60.1494 67.8513H56.6169C56.501 67.8514 56.3861 67.8286 56.2789 67.7842C56.1718 67.7399 56.0744 67.6748 55.9924 67.5928C55.9103 67.5108 55.8453 67.4134 55.8009 67.3062C55.7566 67.1991 55.7338 67.0842 55.7338 66.9682C55.7337 66.8522 55.7565 66.7373 55.8009 66.6301C55.8452 66.5229 55.9103 66.4255 55.9923 66.3435C56.0743 66.2615 56.1717 66.1964 56.2789 66.152C56.3861 66.1076 56.5009 66.0848 56.6169 66.0849H60.1494C60.2654 66.0848 60.3803 66.1076 60.4874 66.152C60.5946 66.1964 60.692 66.2615 60.774 66.3435C60.8561 66.4255 60.9211 66.5229 60.9654 66.6301C61.0098 66.7373 61.0326 66.8522 61.0325 66.9682C61.0325 67.0842 61.0097 67.199 60.9653 67.3062C60.9209 67.4134 60.8559 67.5107 60.7739 67.5927C60.6919 67.6747 60.5945 67.7398 60.4874 67.7842C60.3802 67.8285 60.2653 67.8514 60.1494 67.8513ZM54.9033 89.0466C54.416 89.0466 54.0116 88.6519 54.0116 88.1635C54.0116 87.6755 54.3979 87.2804 54.8861 87.2804H54.9033C55.0193 87.2803 55.1342 87.3031 55.2413 87.3475C55.3485 87.3918 55.4459 87.4569 55.528 87.5389C55.61 87.6209 55.6751 87.7183 55.7194 87.8254C55.7638 87.9326 55.7867 88.0475 55.7866 88.1635C55.7867 88.2795 55.7638 88.3943 55.7194 88.5015C55.6751 88.6087 55.61 88.7061 55.528 88.7881C55.4459 88.8701 55.3485 88.9351 55.2413 88.9795C55.1342 89.0238 55.0193 89.0466 54.9033 89.0466ZM51.3181 89.0466H7.1607C7.0447 89.0467 6.92982 89.0239 6.82264 88.9795C6.71546 88.9352 6.61807 88.8701 6.53605 88.7881C6.45403 88.7061 6.38898 88.6087 6.34463 88.5015C6.30028 88.3943 6.2775 88.2795 6.27759 88.1635C6.27753 88.0475 6.30033 87.9326 6.34469 87.8255C6.38905 87.7183 6.4541 87.6209 6.53611 87.5389C6.61813 87.4569 6.71551 87.3918 6.82268 87.3475C6.92985 87.3031 7.04471 87.2803 7.1607 87.2804H51.3179C51.4338 87.2803 51.5487 87.3031 51.6559 87.3475C51.763 87.3918 51.8604 87.4569 51.9424 87.5389C52.0244 87.6209 52.0895 87.7183 52.1339 87.8255C52.1782 87.9326 52.201 88.0475 52.201 88.1635C52.2011 88.2795 52.1783 88.3943 52.134 88.5015C52.0897 88.6087 52.0246 88.7061 51.9426 88.7881C51.8606 88.8701 51.7633 88.9352 51.6561 88.9795C51.5489 89.0239 51.4341 89.0467 51.3181 89.0466ZM107.839 89.0466H95.4755C95.3594 89.0467 95.2445 89.0239 95.1373 88.9796C95.0301 88.9353 94.9327 88.8702 94.8507 88.7882C94.7686 88.7062 94.7036 88.6088 94.6592 88.5016C94.6148 88.3944 94.592 88.2795 94.5921 88.1635C94.5921 88.0475 94.6149 87.9326 94.6593 87.8254C94.7036 87.7182 94.7687 87.6208 94.8507 87.5388C94.9328 87.4568 95.0302 87.3918 95.1374 87.3474C95.2446 87.3031 95.3594 87.2803 95.4755 87.2804H107.839C107.955 87.2803 108.07 87.3031 108.177 87.3475C108.285 87.3918 108.382 87.4569 108.464 87.5389C108.546 87.6209 108.611 87.7183 108.655 87.8255C108.7 87.9326 108.723 88.0475 108.723 88.1635C108.723 88.2795 108.7 88.3943 108.655 88.5015C108.611 88.6087 108.546 88.706 108.464 88.7881C108.382 88.8701 108.285 88.9351 108.177 88.9795C108.07 89.0238 107.955 89.0466 107.839 89.0466ZM84.8775 90.813C84.7615 90.8131 84.6466 90.7903 84.5394 90.7459C84.4323 90.7015 84.3349 90.6363 84.253 90.5541L82.4868 88.7879C82.4048 88.7059 82.3397 88.6086 82.2953 88.5015C82.251 88.3944 82.2281 88.2795 82.2281 88.1636C82.2281 88.0476 82.251 87.9328 82.2953 87.8257C82.3397 87.7185 82.4048 87.6212 82.4868 87.5392C82.5688 87.4572 82.6661 87.3922 82.7733 87.3478C82.8804 87.3034 82.9952 87.2805 83.1112 87.2805C83.2271 87.2805 83.342 87.3034 83.4491 87.3478C83.5562 87.3922 83.6535 87.4572 83.7355 87.5392L85.5017 89.3055C85.5838 89.3874 85.6488 89.4848 85.6932 89.5919C85.7376 89.699 85.7605 89.8138 85.7605 89.9298C85.7605 90.0458 85.7376 90.1606 85.6932 90.2677C85.6488 90.3748 85.5838 90.4722 85.5017 90.5541C85.4199 90.6363 85.3226 90.7015 85.2155 90.746C85.1083 90.7904 84.9935 90.8132 84.8775 90.813Z" fill="black"/>
<path d="M84.8775 90.813C84.7615 90.8131 84.6466 90.7903 84.5394 90.7459C84.4323 90.7015 84.3349 90.6363 84.253 90.5541C84.171 90.4722 84.106 90.3748 84.0616 90.2677C84.0172 90.1606 83.9943 90.0457 83.9943 89.9298C83.9943 89.8138 84.0172 89.699 84.0616 89.5919C84.106 89.4847 84.171 89.3874 84.253 89.3054L87.7857 85.773C87.8677 85.691 87.965 85.6259 88.0721 85.5815C88.1793 85.5371 88.2941 85.5143 88.41 85.5143C88.526 85.5143 88.6408 85.5371 88.748 85.5815C88.8551 85.6259 88.9524 85.691 89.0344 85.773C89.1164 85.855 89.1815 85.9523 89.2259 86.0594C89.2703 86.1666 89.2931 86.2814 89.2931 86.3974C89.2931 86.5133 89.2703 86.6281 89.2259 86.7353C89.1815 86.8424 89.1164 86.9397 89.0344 87.0217L85.5017 90.5541C85.4199 90.6363 85.3226 90.7015 85.2155 90.7459C85.1083 90.7904 84.9935 90.8132 84.8775 90.813ZM61.9158 89.0466H58.3832C58.2672 89.0467 58.1523 89.0239 58.0451 88.9795C57.9379 88.9352 57.8405 88.8701 57.7585 88.7881C57.6765 88.7061 57.6114 88.6087 57.5671 88.5015C57.5227 88.3943 57.5 88.2795 57.5 88.1635C57.5 88.0475 57.5228 87.9326 57.5672 87.8254C57.6115 87.7183 57.6766 87.6209 57.7586 87.5389C57.8406 87.4569 57.938 87.3918 58.0451 87.3475C58.1523 87.3031 58.2672 87.2803 58.3832 87.2803H61.9158C62.0318 87.2803 62.1467 87.3031 62.2538 87.3475C62.361 87.3918 62.4584 87.4569 62.5404 87.5389C62.6224 87.6209 62.6875 87.7183 62.7318 87.8254C62.7762 87.9326 62.799 88.0475 62.7989 88.1635C62.799 88.2795 62.7762 88.3943 62.7319 88.5015C62.6875 88.6087 62.6225 88.7061 62.5405 88.7881C62.4584 88.8701 62.361 88.9352 62.2539 88.9795C62.1467 89.0239 62.0318 89.0467 61.9158 89.0466ZM61.969 78.4488C61.4811 78.4488 61.0773 78.0539 61.0773 77.5657C61.0773 77.0776 61.4639 76.6826 61.95 76.6826H61.969C62.2033 76.6827 62.4279 76.7757 62.5935 76.9413C62.7591 77.1069 62.8523 77.3315 62.8524 77.5657C62.8523 77.7999 62.7591 78.0245 62.5935 78.1901C62.4279 78.3557 62.2033 78.4488 61.969 78.4488ZM58.3832 78.4488H7.1607C6.67253 78.4488 6.27759 78.0539 6.27759 77.5657C6.27759 77.0776 6.67253 76.6826 7.1607 76.6826H58.3832C58.8713 76.6826 59.2663 77.0776 59.2663 77.5657C59.2663 78.0539 58.8713 78.4488 58.3832 78.4488ZM107.839 78.4488H95.4755C94.9871 78.4488 94.5921 78.0539 94.5921 77.5657C94.5921 77.0776 94.9871 76.6826 95.4755 76.6826H107.839C108.328 76.6826 108.723 77.0776 108.723 77.5657C108.723 78.0539 108.327 78.4488 107.839 78.4488ZM83.1113 80.215C82.9366 80.2151 82.7658 80.1634 82.6205 80.0664C82.4752 79.9694 82.3619 79.8314 82.2951 79.67C82.2282 79.5086 82.2108 79.331 82.2449 79.1597C82.279 78.9883 82.3632 78.831 82.4868 78.7075L86.0195 75.1751C86.3645 74.83 86.9234 74.83 87.2682 75.1751C87.613 75.5201 87.6132 76.0789 87.2682 76.4237L83.7355 79.9564C83.6537 80.0385 83.5564 80.1037 83.4492 80.1481C83.3421 80.1925 83.2272 80.2152 83.1113 80.215Z" fill="black"/>
<path d="M86.6456 80.2151C86.5296 80.2152 86.4148 80.1924 86.3076 80.148C86.2005 80.1037 86.1032 80.0385 86.0213 79.9564L82.4887 76.4237C82.1437 76.0787 82.1437 75.5199 82.4887 75.1751C82.8337 74.8303 83.3926 74.83 83.7374 75.1751L87.27 78.7075C87.3936 78.831 87.4778 78.9883 87.512 79.1597C87.5461 79.331 87.5286 79.5086 87.4618 79.67C87.3949 79.8314 87.2817 79.9694 87.1364 80.0664C86.9911 80.1634 86.8203 80.2152 86.6456 80.2151ZM68.9812 78.4488H65.4485C64.9604 78.4488 64.5654 78.0539 64.5654 77.5657C64.5654 77.0776 64.9604 76.6826 65.4485 76.6826H68.9812C69.4694 76.6826 69.8643 77.0776 69.8643 77.5657C69.8643 78.0539 69.4694 78.4488 68.9812 78.4488Z" fill="black"/>
</g>
<defs>
<clipPath id="clip0_237_162">
<rect width="113.094" height="113.094" fill="white" transform="translate(0.952881 0.706177)"/>
</clipPath>
</defs>
</svg>
