<svg width="127" height="119" viewBox="0 0 127 119" fill="none" xmlns="http://www.w3.org/2000/svg">
<rect x="7.30542" y="90.9028" width="119" height="18.1806" fill="#BDB1ED" style="mix-blend-mode:darken"/>
<rect x="7.30542" y="62.8055" width="119" height="28.0972" fill="#EE7430" style="mix-blend-mode:darken"/>
<path d="M7.30542 27.1389C7.30542 24.9298 9.09628 23.1389 11.3054 23.1389H122.305C124.515 23.1389 126.305 24.9297 126.305 27.1389V62.8056H7.30542V27.1389Z" fill="#FBC76A" style="mix-blend-mode:darken"/>
<g clip-path="url(#clip0_237_91)">
<path d="M55.6033 70.6514C55.0905 70.6514 54.665 70.2356 54.665 69.7221C54.665 69.2082 55.0715 68.7927 55.5851 68.7927H55.6033C55.7253 68.7926 55.8462 68.8166 55.959 68.8633C56.0718 68.91 56.1743 68.9785 56.2606 69.0648C56.3469 69.1511 56.4154 69.2536 56.4621 69.3664C56.5088 69.4792 56.5328 69.6001 56.5327 69.7221C56.5327 69.8442 56.5087 69.965 56.462 70.0778C56.4153 70.1905 56.3468 70.293 56.2605 70.3793C56.1742 70.4656 56.0717 70.534 55.9589 70.5807C55.8462 70.6274 55.7253 70.6514 55.6033 70.6514ZM5.42315 20.471C4.91043 20.471 4.48486 20.0552 4.48486 19.5416C4.48486 19.0281 4.89137 18.6123 5.40502 18.6123H5.42315C5.54519 18.6123 5.66605 18.6363 5.77882 18.6829C5.89159 18.7296 5.99405 18.7981 6.08035 18.8844C6.16664 18.9707 6.23509 19.0731 6.28176 19.1859C6.32844 19.2987 6.35243 19.4195 6.35237 19.5416C6.35246 19.6636 6.32849 19.7845 6.28183 19.8973C6.23517 20.0101 6.16673 20.1126 6.08043 20.1989C5.99413 20.2852 5.89166 20.3537 5.77887 20.4004C5.66609 20.4471 5.54521 20.4711 5.42315 20.471ZM9.14027 20.471C8.62755 20.471 8.20199 20.0552 8.20199 19.5416C8.20199 19.0281 8.60849 18.6123 9.12214 18.6123H9.14027C9.26232 18.6123 9.38318 18.6363 9.49594 18.6829C9.60871 18.7296 9.71117 18.7981 9.79747 18.8844C9.88377 18.9707 9.95221 19.0731 9.99889 19.1859C10.0456 19.2987 10.0696 19.4195 10.0695 19.5416C10.0696 19.6636 10.0456 19.7845 9.99895 19.8973C9.95229 20.0101 9.88385 20.1126 9.79755 20.1989C9.71125 20.2852 9.60878 20.3537 9.496 20.4004C9.38322 20.4471 9.26234 20.4711 9.14027 20.471ZM12.8574 20.471C12.3447 20.471 11.9191 20.0552 11.9191 19.5416C11.9191 19.0281 12.3256 18.6123 12.8393 18.6123H12.8574C12.9794 18.6123 13.1003 18.6363 13.2131 18.6829C13.3258 18.7296 13.4283 18.7981 13.5146 18.8844C13.6009 18.9707 13.6693 19.0731 13.716 19.1859C13.7627 19.2987 13.7867 19.4195 13.7866 19.5416C13.7867 19.6636 13.7627 19.7845 13.7161 19.8973C13.6694 20.0101 13.601 20.1126 13.5147 20.1989C13.4284 20.2852 13.3259 20.3537 13.2131 20.4004C13.1003 20.4471 12.9795 20.4711 12.8574 20.471Z" fill="black"/>
<path d="M118.738 102.246H1.65066C1.52861 102.246 1.40773 102.222 1.29495 102.176C1.18217 102.129 1.0797 102.06 0.993394 101.974C0.90709 101.888 0.838647 101.785 0.791982 101.673C0.745317 101.56 0.721344 101.439 0.721436 101.317V21.4002C0.721344 21.2782 0.745317 21.1573 0.791982 21.0445C0.838647 20.9318 0.90709 20.8293 0.993394 20.743C1.0797 20.6567 1.18217 20.5882 1.29495 20.5416C1.40773 20.4949 1.52861 20.4709 1.65066 20.471H118.738C118.86 20.4709 118.981 20.4949 119.094 20.5416C119.206 20.5882 119.309 20.6567 119.395 20.743C119.481 20.8293 119.55 20.9318 119.596 21.0445C119.643 21.1573 119.667 21.2782 119.667 21.4002V101.317C119.667 101.439 119.643 101.56 119.596 101.673C119.55 101.785 119.481 101.888 119.395 101.974C119.309 102.06 119.206 102.129 119.094 102.176C118.981 102.222 118.86 102.246 118.738 102.246ZM2.57988 100.388H117.808V22.3295H2.57988V100.388Z" fill="black"/>
<path d="M118.738 22.3295H1.65066C1.52861 22.3296 1.40773 22.3056 1.29495 22.2589C1.18217 22.2123 1.0797 22.1438 0.993394 22.0575C0.90709 21.9712 0.838647 21.8687 0.791982 21.7559C0.745317 21.6432 0.721344 21.5223 0.721436 21.4002V19.5416C0.721436 18.0043 1.97187 16.7537 3.5091 16.7537H116.879C118.416 16.7537 119.667 18.0043 119.667 19.5416V21.4002C119.667 21.5223 119.643 21.6432 119.596 21.7559C119.55 21.8687 119.481 21.9712 119.395 22.0575C119.309 22.1438 119.206 22.2122 119.093 22.2589C118.981 22.3056 118.86 22.3296 118.738 22.3295ZM2.57988 20.471H117.808V19.5416C117.808 19.2953 117.71 19.0592 117.536 18.885C117.362 18.7109 117.125 18.6128 116.879 18.6123H3.5091C3.26275 18.6126 3.02658 18.7106 2.85238 18.8848C2.67819 19.059 2.58019 19.2952 2.57988 19.5416V20.471ZM113.162 46.4902H7.22623C7.10417 46.4903 6.9833 46.4663 6.87052 46.4196C6.75774 46.373 6.65527 46.3045 6.56896 46.2182C6.48266 46.1319 6.41422 46.0294 6.36755 45.9167C6.32089 45.8039 6.29691 45.683 6.297 45.561V26.9758C6.29694 26.8538 6.32094 26.7329 6.36761 26.6201C6.41429 26.5074 6.48273 26.4049 6.56903 26.3186C6.65533 26.2323 6.75779 26.1639 6.87056 26.1172C6.98332 26.0705 7.10418 26.0465 7.22623 26.0466H113.162C113.284 26.0465 113.405 26.0705 113.518 26.1172C113.63 26.1639 113.733 26.2323 113.819 26.3186C113.906 26.4049 113.974 26.5074 114.021 26.6201C114.067 26.7329 114.091 26.8538 114.091 26.9758V45.561C114.091 45.683 114.067 45.8038 114.021 45.9166C113.974 46.0294 113.906 46.1318 113.819 46.2181C113.733 46.3044 113.631 46.3729 113.518 46.4196C113.405 46.4662 113.284 46.4902 113.162 46.4902ZM8.15568 44.6317H112.233V27.905H8.15568V44.6317Z" fill="black"/>
<path d="M98.2941 35.3393H22.0946C21.9726 35.3393 21.8517 35.3154 21.7389 35.2687C21.6262 35.222 21.5237 35.1536 21.4374 35.0673C21.3511 34.981 21.2827 34.8785 21.236 34.7657C21.1893 34.653 21.1653 34.5321 21.1654 34.4101C21.1653 34.288 21.1893 34.1671 21.2359 34.0543C21.2826 33.9415 21.351 33.839 21.4373 33.7527C21.5236 33.6664 21.6261 33.5979 21.7389 33.5512C21.8517 33.5045 21.9725 33.4805 22.0946 33.4806H98.2941C98.4162 33.4805 98.5371 33.5045 98.6498 33.5512C98.7626 33.5979 98.8651 33.6664 98.9514 33.7527C99.0377 33.839 99.1061 33.9415 99.1528 34.0543C99.1995 34.1671 99.2234 34.288 99.2233 34.4101C99.2234 34.5321 99.1994 34.653 99.1527 34.7657C99.1061 34.8785 99.0376 34.981 98.9513 35.0673C98.865 35.1536 98.7626 35.222 98.6498 35.2687C98.537 35.3154 98.4162 35.3393 98.2941 35.3393ZM79.709 39.0562H40.68C40.1663 39.0562 39.7505 38.6406 39.7505 38.127C39.7505 37.6133 40.1663 37.1977 40.68 37.1977H79.709C80.2226 37.1977 80.6382 37.6133 80.6382 38.127C80.6382 38.6406 80.2226 39.0562 79.709 39.0562ZM113.162 61.3585H7.22634C7.10429 61.3585 6.98342 61.3346 6.87064 61.2879C6.75786 61.2412 6.65538 61.1728 6.56908 61.0865C6.48277 61.0002 6.41433 60.8977 6.36767 60.7849C6.321 60.6722 6.29703 60.5513 6.29712 60.4292V51.1368C6.29703 51.0147 6.321 50.8938 6.36767 50.7811C6.41433 50.6683 6.48277 50.5658 6.56908 50.4795C6.65538 50.3932 6.75786 50.3248 6.87064 50.2781C6.98342 50.2314 7.10429 50.2075 7.22634 50.2075H113.162C113.284 50.2075 113.405 50.2314 113.518 50.2781C113.631 50.3248 113.733 50.3932 113.819 50.4795C113.906 50.5658 113.974 50.6683 114.021 50.7811C114.067 50.8938 114.091 51.0147 114.091 51.1368V60.4292C114.091 60.5513 114.067 60.6721 114.021 60.7849C113.974 60.8976 113.906 61.0001 113.819 61.0864C113.733 61.1727 113.631 61.2412 113.518 61.2878C113.405 61.3345 113.284 61.3585 113.162 61.3585ZM8.1558 59.5H112.233V52.066H8.1558V59.5Z" fill="black"/>
<path d="M12.8019 59.5C12.6079 59.4999 12.4188 59.4392 12.2612 59.3262C12.1035 59.2132 11.9851 59.0538 11.9226 58.8701L10.064 53.4108C10.0245 53.2952 10.0083 53.1731 10.0161 53.0513C10.0239 52.9294 10.0556 52.8104 10.1095 52.7008C10.1633 52.5913 10.2382 52.4934 10.3299 52.4128C10.4216 52.3323 10.5283 52.2706 10.6439 52.2312C11.1294 52.0732 11.6574 52.3274 11.8227 52.812L13.6814 58.2714C13.7208 58.3869 13.7371 58.5091 13.7293 58.631C13.7215 58.7528 13.6897 58.8719 13.6359 58.9815C13.582 59.091 13.5071 59.1889 13.4154 59.2695C13.3237 59.3501 13.2171 59.4118 13.1015 59.4512C13.0048 59.4832 12.9037 59.4997 12.8019 59.5Z" fill="black"/>
<path d="M12.801 59.5C12.6427 59.4998 12.487 59.4592 12.3488 59.382C12.2106 59.3048 12.0944 59.1936 12.0112 59.0589C11.928 58.9242 11.8806 58.7705 11.8735 58.6123C11.8664 58.4542 11.8998 58.2968 11.9705 58.1552L13.8292 54.4381C14.0598 53.9807 14.6187 53.7901 15.0761 54.0225C15.2966 54.1328 15.4642 54.3261 15.5422 54.5599C15.6201 54.7938 15.6019 55.049 15.4917 55.2695L13.6333 58.9863C13.5558 59.1407 13.437 59.2705 13.29 59.3613C13.143 59.452 12.9737 59.5 12.801 59.5Z" fill="black"/>
<path d="M16.5199 59.5C16.3472 59.5 16.1779 59.452 16.0309 59.3612C15.884 59.2705 15.7652 59.1407 15.6878 58.9864L13.8291 55.2692C13.7745 55.1601 13.742 55.0412 13.7333 54.9194C13.7246 54.7977 13.7401 54.6754 13.7787 54.5596C13.8173 54.4438 13.8783 54.3368 13.9583 54.2446C14.0383 54.1524 14.1357 54.0768 14.2449 54.0223C14.7033 53.7899 15.2622 53.9805 15.4916 54.4379L17.3503 58.155C17.4212 58.2966 17.4547 58.454 17.4476 58.6122C17.4405 58.7704 17.3932 58.9242 17.31 59.059C17.2268 59.1937 17.1105 59.305 16.9722 59.3822C16.8339 59.4593 16.6782 59.4999 16.5199 59.5Z" fill="black"/>
<path d="M16.5189 59.5C16.4217 59.5 16.323 59.4856 16.2249 59.4528C15.9912 59.3746 15.7981 59.2068 15.688 58.9863C15.5779 58.7658 15.5599 58.5106 15.6378 58.2768L17.4962 52.7012C17.5347 52.5853 17.5956 52.4782 17.6755 52.3859C17.7554 52.2936 17.8528 52.218 17.9619 52.1634C18.0711 52.1088 18.19 52.0762 18.3118 52.0676C18.4335 52.059 18.5558 52.0745 18.6716 52.1132C18.9053 52.1915 19.0983 52.3593 19.2084 52.5798C19.3184 52.8003 19.3365 53.0554 19.2587 53.2892L17.4 58.8648C17.3383 59.0497 17.22 59.2105 17.0619 59.3245C16.9038 59.4384 16.7138 59.4999 16.5189 59.5Z" fill="black"/>
<path d="M22.0946 59.5C21.9006 59.4999 21.7116 59.4392 21.5539 59.3262C21.3962 59.2132 21.2778 59.0538 21.2154 58.8701L19.3567 53.4108C19.3173 53.2952 19.301 53.1731 19.3088 53.0513C19.3166 52.9294 19.3483 52.8104 19.4022 52.7008C19.456 52.5913 19.531 52.4934 19.6227 52.4128C19.7143 52.3323 19.821 52.2706 19.9366 52.2312C20.4256 52.0732 20.9502 52.3274 21.1154 52.812L22.9739 58.2714C23.0133 58.3869 23.0296 58.5091 23.0218 58.631C23.0141 58.7528 22.9823 58.8719 22.9285 58.9815C22.8746 59.0911 22.7997 59.1889 22.708 59.2695C22.6163 59.3501 22.5096 59.4119 22.394 59.4512C22.2952 59.4837 22.1936 59.5 22.0946 59.5Z" fill="black"/>
<path d="M22.0937 59.5C21.9354 59.4998 21.7797 59.4592 21.6415 59.382C21.5033 59.3048 21.3871 59.1936 21.3039 59.0589C21.2207 58.9242 21.1733 58.7705 21.1662 58.6123C21.1591 58.4542 21.1925 58.2968 21.2632 58.1552L23.1219 54.4381C23.3513 53.9807 23.9096 53.7901 24.3686 54.0225C24.5891 54.1328 24.7567 54.3261 24.8347 54.5599C24.9127 54.7937 24.8946 55.0489 24.7844 55.2695L22.9258 58.9866C22.8483 59.1409 22.7295 59.2707 22.5826 59.3613C22.4356 59.452 22.2664 59.5 22.0937 59.5Z" fill="black"/>
<path d="M25.8123 59.5C25.6396 59.5 25.4704 59.452 25.3234 59.3612C25.1765 59.2705 25.0576 59.1407 24.9803 58.9864L23.1218 55.2692C23.0116 55.0488 22.9934 54.7935 23.0714 54.5597C23.1493 54.3259 23.3169 54.1326 23.5374 54.0223C23.9973 53.7899 24.5538 53.9805 24.7843 54.4379L26.643 58.155C26.7138 58.2966 26.7472 58.454 26.7401 58.6122C26.733 58.7704 26.6856 58.9242 26.6024 59.0589C26.5192 59.1937 26.4029 59.3049 26.2647 59.3821C26.1264 59.4593 25.9707 59.4999 25.8123 59.5Z" fill="black"/>
<path d="M25.8116 59.5C25.7146 59.5 25.6156 59.4856 25.5175 59.4528C25.2839 59.3745 25.0908 59.2067 24.9808 58.9862C24.8707 58.7657 24.8526 58.5106 24.9305 58.2768L26.7891 52.7012C26.8275 52.5853 26.8884 52.4782 26.9683 52.3859C27.0482 52.2936 27.1455 52.2179 27.2547 52.1633C27.3638 52.1087 27.4827 52.0761 27.6045 52.0675C27.7262 52.0589 27.8485 52.0744 27.9643 52.1132C28.1979 52.1915 28.391 52.3593 28.501 52.5798C28.6111 52.8003 28.6292 53.0554 28.5514 53.2892L26.6927 58.8648C26.631 59.0497 26.5127 59.2105 26.3546 59.3245C26.1964 59.4385 26.0065 59.4999 25.8116 59.5Z" fill="black"/>
<path d="M31.3872 59.5C31.1932 59.4999 31.0041 59.4392 30.8464 59.3262C30.6887 59.2132 30.5704 59.0538 30.5079 58.8701L28.6495 53.4108C28.61 53.2952 28.5937 53.1731 28.6015 53.0513C28.6093 52.9294 28.641 52.8103 28.6949 52.7008C28.7487 52.5912 28.8237 52.4934 28.9154 52.4128C29.0071 52.3322 29.1138 52.2705 29.2294 52.2312C29.7168 52.0732 30.243 52.3274 30.4082 52.812L32.2667 58.2714C32.3061 58.3869 32.3224 58.5091 32.3146 58.631C32.3068 58.7528 32.2751 58.8719 32.2213 58.9815C32.1674 59.0911 32.0925 59.1889 32.0008 59.2695C31.909 59.3501 31.8023 59.4119 31.6868 59.4512C31.5877 59.4837 31.486 59.5 31.3872 59.5Z" fill="black"/>
<path d="M31.3863 59.5C31.228 59.4998 31.0724 59.4592 30.9341 59.382C30.7959 59.3048 30.6797 59.1936 30.5965 59.0589C30.5134 58.9242 30.466 58.7705 30.4589 58.6123C30.4519 58.4541 30.4853 58.2968 30.5561 58.1552L32.4146 54.4381C32.6451 53.9807 33.2013 53.7901 33.6615 54.0225C33.8819 54.1328 34.0496 54.3261 34.1276 54.5599C34.2055 54.7937 34.1875 55.0489 34.0773 55.2695L32.2186 58.9866C32.1411 59.1409 32.0223 59.2707 31.8753 59.3613C31.7283 59.452 31.559 59.5 31.3863 59.5Z" fill="black"/>
<path d="M35.1053 59.5C34.9326 59.5 34.7632 59.452 34.6163 59.3613C34.4693 59.2706 34.3504 59.1408 34.273 58.9864L32.4145 55.2692C32.3043 55.0488 32.2862 54.7935 32.3641 54.5597C32.442 54.3259 32.6096 54.1326 32.8301 54.0223C33.2884 53.7899 33.8456 53.9805 34.077 54.4379L35.9355 58.155C36.0064 58.2966 36.04 58.454 36.0329 58.6122C36.0259 58.7704 35.9786 58.9242 35.8954 59.059C35.8122 59.1937 35.696 59.305 35.5577 59.3822C35.4194 59.4594 35.2637 59.4999 35.1053 59.5Z" fill="black"/>
<path d="M35.1043 59.5C35.0043 59.5003 34.9049 59.4843 34.81 59.4528C34.5764 59.3745 34.3833 59.2067 34.2733 58.9862C34.1632 58.7657 34.1451 58.5106 34.2229 58.2768L36.0816 52.7012C36.12 52.5853 36.1809 52.4781 36.2607 52.3858C36.3406 52.2935 36.4379 52.2178 36.5471 52.1632C36.6563 52.1086 36.7751 52.076 36.8969 52.0675C37.0187 52.0589 37.141 52.0744 37.2567 52.1132C37.4904 52.1914 37.6835 52.3592 37.7936 52.5797C37.9037 52.8002 37.9217 53.0554 37.8438 53.2892L35.9854 58.8648C35.9236 59.0496 35.8053 59.2104 35.6472 59.3244C35.4891 59.4383 35.2992 59.4998 35.1043 59.5ZM105.728 57.6415C104.191 57.6415 102.94 56.3909 102.94 54.8536C102.94 53.3164 104.191 52.0657 105.728 52.0657C107.265 52.0657 108.516 53.3162 108.516 54.8536C108.516 56.3909 107.265 57.6415 105.728 57.6415ZM105.728 53.9244C105.482 53.9249 105.246 54.023 105.071 54.1972C104.897 54.3714 104.799 54.6075 104.799 54.8539C104.799 55.3657 105.216 55.7831 105.728 55.7831C106.24 55.7831 106.657 55.3657 106.657 54.8539C106.657 54.6075 106.559 54.3714 106.385 54.1972C106.21 54.023 105.974 53.9249 105.728 53.9244Z" fill="black"/>
<path d="M109.445 59.5C109.323 59.5001 109.202 59.4761 109.09 59.4294C108.977 59.3827 108.874 59.3142 108.788 59.2278L106.382 56.8214C106.019 56.4583 106.019 55.8703 106.382 55.5072C106.745 55.1442 107.333 55.1442 107.696 55.5072L110.102 57.9137C110.232 58.0436 110.321 58.2092 110.357 58.3895C110.393 58.5698 110.374 58.7567 110.304 58.9265C110.234 59.0964 110.115 59.2415 109.962 59.3436C109.809 59.4457 109.629 59.5001 109.445 59.5ZM51.8311 70.6514H7.22634C7.1043 70.6514 6.98344 70.6274 6.87067 70.5808C6.75791 70.5341 6.65544 70.4657 6.56915 70.3794C6.48285 70.2931 6.4144 70.1906 6.36773 70.0778C6.32105 69.9651 6.29706 69.8442 6.29712 69.7222C6.29703 69.6001 6.321 69.4792 6.36766 69.3664C6.41432 69.2536 6.48276 69.1511 6.56906 69.0648C6.65537 68.9785 6.75784 68.91 6.87062 68.8633C6.9834 68.8166 7.10428 68.7926 7.22634 68.7927H51.8309C51.9529 68.7926 52.0738 68.8166 52.1866 68.8633C52.2994 68.91 52.4019 68.9785 52.4882 69.0648C52.5745 69.1511 52.6429 69.2536 52.6896 69.3664C52.7362 69.4792 52.7602 69.6001 52.7601 69.7222C52.7602 69.8442 52.7362 69.965 52.6896 70.0778C52.6429 70.1906 52.5745 70.293 52.4882 70.3793C52.402 70.4656 52.2995 70.5341 52.1868 70.5808C52.074 70.6275 51.9531 70.6514 51.8311 70.6514ZM113.162 70.6514H100.153C100.031 70.6515 99.9098 70.6275 99.797 70.5808C99.6842 70.5342 99.5818 70.4657 99.4954 70.3794C99.4091 70.2931 99.3407 70.1907 99.294 70.0779C99.2473 69.9651 99.2233 69.8442 99.2233 69.7222C99.2232 69.6001 99.2472 69.4792 99.2939 69.3664C99.3406 69.2536 99.409 69.1511 99.4954 69.0647C99.5817 68.9784 99.6842 68.9099 99.797 68.8633C99.9098 68.8166 100.031 68.7926 100.153 68.7927H113.162C113.284 68.7926 113.405 68.8166 113.518 68.8633C113.631 68.91 113.733 68.9785 113.82 69.0648C113.906 69.1511 113.974 69.2536 114.021 69.3664C114.068 69.4792 114.092 69.6001 114.092 69.7222C114.092 69.8442 114.068 69.965 114.021 70.0778C113.974 70.1905 113.906 70.293 113.819 70.3793C113.733 70.4656 113.631 70.534 113.518 70.5807C113.405 70.6274 113.284 70.6514 113.162 70.6514ZM89.0014 72.5098C88.8793 72.5099 88.7585 72.4859 88.6457 72.4392C88.5329 72.3924 88.4305 72.3239 88.3444 72.2374L86.4859 70.379C86.1229 70.0159 86.1229 69.4279 86.4859 69.0651C86.849 68.7023 87.437 68.7021 87.7998 69.0651L89.6582 70.9235C89.7445 71.0098 89.813 71.1122 89.8597 71.2249C89.9064 71.3377 89.9305 71.4585 89.9305 71.5805C89.9305 71.7025 89.9064 71.8233 89.8597 71.936C89.813 72.0488 89.7445 72.1512 89.6582 72.2374C89.5721 72.3239 89.4698 72.3925 89.357 72.4393C89.2443 72.486 89.1235 72.51 89.0014 72.5098Z" fill="black"/>
<path d="M89.0014 72.5098C88.8793 72.5099 88.7585 72.4859 88.6457 72.4392C88.5329 72.3924 88.4305 72.3239 88.3444 72.2374C88.2581 72.1512 88.1896 72.0488 88.1429 71.936C88.0962 71.8233 88.0721 71.7025 88.0721 71.5805C88.0721 71.4585 88.0962 71.3376 88.1429 71.2249C88.1896 71.1122 88.2581 71.0098 88.3444 70.9235L92.0615 67.2064C92.1477 67.1201 92.2501 67.0516 92.3629 67.0049C92.4756 66.9582 92.5964 66.9342 92.7184 66.9342C92.8404 66.9342 92.9613 66.9582 93.074 67.0049C93.1867 67.0516 93.2891 67.1201 93.3754 67.2064C93.4617 67.2927 93.5301 67.3951 93.5769 67.5079C93.6236 67.6206 93.6476 67.7414 93.6476 67.8635C93.6476 67.9855 93.6236 68.1063 93.5769 68.2191C93.5301 68.3318 93.4617 68.4343 93.3754 68.5205L89.6582 72.2374C89.5721 72.3239 89.4698 72.3925 89.357 72.4392C89.2443 72.486 89.1235 72.51 89.0014 72.5098ZM62.982 70.6514H59.2651C59.1431 70.6514 59.0222 70.6274 58.9095 70.5808C58.7967 70.5341 58.6942 70.4656 58.6079 70.3793C58.5216 70.293 58.4532 70.1906 58.4065 70.0778C58.3598 69.9651 58.3358 69.8442 58.3359 69.7221C58.3358 69.6001 58.3598 69.4792 58.4064 69.3664C58.4531 69.2536 58.5215 69.1511 58.6078 69.0648C58.6941 68.9785 58.7966 68.91 58.9094 68.8633C59.0222 68.8166 59.1431 68.7926 59.2651 68.7927H62.982C63.1041 68.7926 63.225 68.8166 63.3377 68.8633C63.4505 68.91 63.553 68.9785 63.6393 69.0648C63.7256 69.1511 63.794 69.2536 63.8407 69.3664C63.8874 69.4792 63.9113 69.6001 63.9112 69.7221C63.9113 69.8442 63.8873 69.965 63.8406 70.0778C63.7939 70.1905 63.7254 70.293 63.6391 70.3793C63.5529 70.4656 63.4504 70.534 63.3376 70.5807C63.2249 70.6274 63.1041 70.6514 62.982 70.6514ZM57.462 92.9534C56.9493 92.9534 56.5237 92.5381 56.5237 92.0242C56.5237 91.5108 56.9302 91.095 57.4439 91.095H57.462C57.5841 91.0949 57.7049 91.1189 57.8177 91.1656C57.9305 91.2122 58.033 91.2807 58.1193 91.367C58.2056 91.4533 58.2741 91.5557 58.3208 91.6685C58.3675 91.7813 58.3915 91.9021 58.3915 92.0242C58.3915 92.1462 58.3675 92.2671 58.3208 92.3799C58.2741 92.4926 58.2056 92.5951 58.1193 92.6814C58.033 92.7677 57.9305 92.8361 57.8177 92.8828C57.7049 92.9295 57.5841 92.9535 57.462 92.9534ZM53.6896 92.9534H7.22634C7.10429 92.9535 6.98341 92.9295 6.87064 92.8829C6.75786 92.8362 6.65538 92.7678 6.56908 92.6815C6.48277 92.5951 6.41433 92.4927 6.36767 92.3799C6.321 92.2671 6.29703 92.1462 6.29712 92.0242C6.29706 91.9021 6.32105 91.7813 6.36773 91.6685C6.4144 91.5558 6.48285 91.4533 6.56915 91.367C6.65544 91.2807 6.75791 91.2122 6.87067 91.1656C6.98344 91.1189 7.1043 91.0949 7.22634 91.095H53.6893C53.8114 91.0949 53.9322 91.1189 54.045 91.1656C54.1578 91.2122 54.2602 91.2807 54.3465 91.367C54.4328 91.4533 54.5013 91.5558 54.5479 91.6685C54.5946 91.7813 54.6186 91.9021 54.6185 92.0242C54.6187 92.1462 54.5947 92.2671 54.5481 92.3799C54.5014 92.4927 54.433 92.5951 54.3467 92.6814C54.2605 92.7677 54.158 92.8362 54.0452 92.8829C53.9325 92.9295 53.8116 92.9535 53.6896 92.9534ZM113.162 92.9534H100.153C100.031 92.9535 99.9098 92.9296 99.797 92.8829C99.6842 92.8363 99.5817 92.7678 99.4954 92.6815C99.409 92.5952 99.3406 92.4927 99.2939 92.3799C99.2472 92.2672 99.2232 92.1463 99.2233 92.0242C99.2233 91.9021 99.2473 91.7812 99.294 91.6685C99.3407 91.5557 99.4091 91.4532 99.4954 91.3669C99.5818 91.2806 99.6842 91.2122 99.797 91.1655C99.9098 91.1188 100.031 91.0949 100.153 91.095H113.162C113.284 91.0949 113.405 91.1189 113.518 91.1656C113.631 91.2122 113.733 91.2807 113.82 91.367C113.906 91.4533 113.974 91.5558 114.021 91.6685C114.068 91.7813 114.092 91.9021 114.092 92.0242C114.092 92.1462 114.068 92.2671 114.021 92.3799C113.974 92.4926 113.906 92.5951 113.82 92.6814C113.733 92.7677 113.631 92.8361 113.518 92.8828C113.405 92.9295 113.284 92.9535 113.162 92.9534ZM89.0014 94.8121C88.8793 94.8122 88.7585 94.7882 88.6457 94.7415C88.5329 94.6947 88.4305 94.6261 88.3444 94.5397L86.4859 92.6812C86.3996 92.595 86.3311 92.4926 86.2844 92.3799C86.2377 92.2671 86.2137 92.1463 86.2137 92.0243C86.2137 91.9023 86.2377 91.7815 86.2844 91.6687C86.3311 91.556 86.3996 91.4536 86.4859 91.3674C86.5722 91.2811 86.6746 91.2126 86.7873 91.1659C86.9 91.1192 87.0208 91.0951 87.1429 91.0951C87.2649 91.0951 87.3857 91.1192 87.4984 91.1659C87.6111 91.2126 87.7135 91.2811 87.7998 91.3674L89.6582 93.2258C89.7445 93.3121 89.813 93.4145 89.8597 93.5272C89.9064 93.6399 89.9305 93.7607 89.9305 93.8827C89.9305 94.0048 89.9064 94.1256 89.8597 94.2383C89.813 94.351 89.7445 94.4534 89.6582 94.5397C89.5721 94.6262 89.4698 94.6948 89.357 94.7415C89.2443 94.7883 89.1235 94.8123 89.0014 94.8121Z" fill="black"/>
<path d="M89.0014 94.8121C88.8793 94.8122 88.7585 94.7882 88.6457 94.7415C88.5329 94.6947 88.4305 94.6261 88.3444 94.5397C88.2581 94.4534 88.1896 94.351 88.1429 94.2383C88.0962 94.1256 88.0721 94.0048 88.0721 93.8827C88.0721 93.7607 88.0962 93.6399 88.1429 93.5272C88.1896 93.4145 88.2581 93.3121 88.3444 93.2258L92.0615 89.5089C92.1477 89.4226 92.2501 89.3541 92.3629 89.3074C92.4756 89.2607 92.5964 89.2367 92.7184 89.2367C92.8404 89.2367 92.9613 89.2607 93.074 89.3074C93.1867 89.3541 93.2891 89.4226 93.3754 89.5089C93.4617 89.5952 93.5301 89.6976 93.5768 89.8103C93.6236 89.923 93.6476 90.0438 93.6476 90.1659C93.6476 90.2879 93.6236 90.4087 93.5768 90.5214C93.5301 90.6341 93.4617 90.7365 93.3754 90.8228L89.6582 94.5397C89.5721 94.6262 89.4698 94.6948 89.357 94.7415C89.2443 94.7883 89.1235 94.8123 89.0014 94.8121ZM64.8407 92.9534H61.1236C61.0015 92.9535 60.8806 92.9295 60.7679 92.8829C60.6551 92.8362 60.5526 92.7678 60.4663 92.6814C60.38 92.5951 60.3116 92.4927 60.2649 92.3799C60.2182 92.2671 60.1943 92.1462 60.1943 92.0242C60.1943 91.9021 60.2183 91.7813 60.265 91.6685C60.3116 91.5558 60.3801 91.4533 60.4664 91.367C60.5527 91.2807 60.6551 91.2122 60.7679 91.1656C60.8807 91.1189 61.0015 91.0949 61.1236 91.095H64.8407C64.9627 91.0949 65.0836 91.1189 65.1964 91.1656C65.3091 91.2122 65.4116 91.2807 65.4979 91.367C65.5842 91.4533 65.6526 91.5558 65.6993 91.6685C65.746 91.7813 65.77 91.9021 65.7699 92.0242C65.77 92.1462 65.746 92.2671 65.6994 92.3799C65.6527 92.4927 65.5843 92.5951 65.498 92.6814C65.4117 92.7678 65.3092 92.8362 65.1964 92.8829C65.0836 92.9295 64.9627 92.9535 64.8407 92.9534ZM64.8967 81.8023C64.3833 81.8023 63.9584 81.3867 63.9584 80.8731C63.9584 80.3594 64.3652 79.9438 64.8767 79.9438H64.8967C65.1432 79.9439 65.3795 80.0418 65.5538 80.216C65.7281 80.3903 65.826 80.6266 65.8262 80.8731C65.826 81.1195 65.7281 81.3558 65.5538 81.5301C65.3795 81.7043 65.1432 81.8022 64.8967 81.8023ZM61.1236 81.8023H7.22634C6.71269 81.8023 6.29712 81.3867 6.29712 80.8731C6.29712 80.3594 6.71269 79.9438 7.22634 79.9438H61.1236C61.6372 79.9438 62.0528 80.3594 62.0528 80.8731C62.0528 81.3867 61.6372 81.8023 61.1236 81.8023ZM113.162 81.8023H100.153C99.6389 81.8023 99.2233 81.3867 99.2233 80.8731C99.2233 80.3594 99.6389 79.9438 100.153 79.9438H113.162C113.676 79.9438 114.092 80.3594 114.092 80.8731C114.092 81.3867 113.676 81.8023 113.162 81.8023ZM87.143 83.6607C86.9591 83.6608 86.7794 83.6064 86.6265 83.5043C86.4736 83.4022 86.3545 83.2571 86.2841 83.0872C86.2138 82.9174 86.1954 82.7305 86.2313 82.5502C86.2672 82.3699 86.3558 82.2044 86.4859 82.0744L90.203 78.3575C90.5661 77.9945 91.1541 77.9945 91.5169 78.3575C91.8797 78.7206 91.88 79.3086 91.5169 79.6714L87.7998 83.3886C87.7137 83.475 87.6113 83.5435 87.4986 83.5903C87.3858 83.637 87.265 83.6609 87.143 83.6607Z" fill="black"/>
<path d="M90.8618 83.6607C90.7398 83.6609 90.6189 83.6369 90.5062 83.5902C90.3935 83.5435 90.2911 83.475 90.205 83.3886L86.4878 79.6714C86.1248 79.3084 86.1248 78.7204 86.4878 78.3576C86.8509 77.9947 87.4389 77.9945 87.8017 78.3576L91.5188 82.0744C91.6489 82.2044 91.7375 82.3699 91.7734 82.5502C91.8093 82.7305 91.791 82.9174 91.7206 83.0872C91.6503 83.2571 91.5311 83.4022 91.3782 83.5043C91.2253 83.6064 91.0456 83.6608 90.8618 83.6607ZM72.275 81.8023H68.5579C68.0442 81.8023 67.6287 81.3867 67.6287 80.8731C67.6287 80.3594 68.0442 79.9438 68.5579 79.9438H72.275C72.7887 79.9438 73.2042 80.3594 73.2042 80.8731C73.2042 81.3867 72.7887 81.8023 72.275 81.8023Z" fill="black"/>
</g>
<defs>
<clipPath id="clip0_237_91">
<rect width="119" height="119" fill="white" transform="translate(0.694336)"/>
</clipPath>
</defs>
</svg>
