<svg width="180" height="51" viewBox="0 0 180 51" fill="none" xmlns="http://www.w3.org/2000/svg">
<path d="M173.744 34.812C172.496 34.812 171.536 34.524 170.864 33.948C170.216 33.372 169.892 32.724 169.892 32.004C169.892 31.38 170.12 30.84 170.576 30.384C171.032 29.928 171.704 29.7 172.592 29.7C172.904 29.7 173.264 29.736 173.672 29.808C174.104 29.856 174.428 29.892 174.644 29.916C174.62 29.292 174.476 28.704 174.212 28.152C173.972 27.6 173.66 27.072 173.276 26.568C172.892 26.04 172.532 25.584 172.196 25.2C171.452 26.616 170.708 27.792 169.964 28.728C169.244 29.664 168.452 30.552 167.588 31.392C167.156 31.824 166.7 32.04 166.22 32.04C165.836 32.04 165.524 31.908 165.284 31.644C165.044 31.356 164.924 31.008 164.924 30.6C164.924 30.12 165.092 29.676 165.428 29.268L165.896 28.692C167.216 27.06 168.212 25.716 168.884 24.66C169.316 23.964 169.748 23.136 170.18 22.176C170.636 21.216 171.224 19.908 171.944 18.252C172.4 17.196 173.348 16.668 174.788 16.668C175.46 16.668 175.928 16.728 176.192 16.848C176.456 16.968 176.588 17.16 176.588 17.424C176.588 17.568 176.54 17.796 176.444 18.108C176.348 18.42 176.216 18.732 176.048 19.044C175.616 19.908 175.4 20.64 175.4 21.24C175.4 21.6 175.52 21.996 175.76 22.428C176.024 22.86 176.42 23.4 176.948 24.048C177.716 25.056 178.292 25.92 178.676 26.64C179.084 27.336 179.288 28.104 179.288 28.944C179.288 29.952 179.048 30.912 178.568 31.824C178.112 32.712 177.464 33.432 176.624 33.984C175.784 34.536 174.824 34.812 173.744 34.812Z" fill="white"/>
<path d="M166.827 22.86C166.827 24.756 166.383 26.556 165.495 28.26C164.631 29.94 163.467 31.308 162.003 32.364C160.563 33.42 159.015 33.972 157.359 34.02C157.047 38.652 156.339 42.516 155.235 45.612C154.131 48.732 152.511 50.292 150.375 50.292C149.079 50.292 148.119 49.824 147.495 48.888C146.871 47.952 146.559 46.656 146.559 45C146.559 42.648 147.099 39.9 148.179 36.756C149.259 33.636 150.927 30.192 153.183 26.424C153.183 22.92 153.159 20.484 153.111 19.116C153.087 18.42 153.363 17.868 153.939 17.46C154.515 17.052 155.235 16.848 156.099 16.848C156.603 16.848 156.963 16.956 157.179 17.172C157.419 17.364 157.551 17.76 157.575 18.36C157.575 18.96 157.587 19.404 157.611 19.692C158.379 18.732 159.135 18.048 159.879 17.64C160.623 17.208 161.415 16.992 162.255 16.992C163.599 16.992 164.691 17.532 165.531 18.612C166.395 19.692 166.827 21.108 166.827 22.86ZM157.539 30.564C158.403 30.372 159.195 29.904 159.915 29.16C160.659 28.392 161.247 27.456 161.679 26.352C162.111 25.224 162.327 24.048 162.327 22.824C162.327 22.104 162.183 21.564 161.895 21.204C161.607 20.82 161.223 20.628 160.743 20.628C159.879 20.628 158.835 21.54 157.611 23.364C157.587 24.42 157.575 25.968 157.575 28.008C157.575 29.112 157.563 29.964 157.539 30.564ZM150.663 46.764C151.311 46.764 151.851 45.348 152.283 42.516C152.715 39.708 152.991 36.204 153.111 32.004C152.079 34.404 151.263 36.696 150.663 38.88C150.063 41.064 149.763 42.9 149.763 44.388C149.763 45.156 149.859 45.744 150.051 46.152C150.219 46.56 150.423 46.764 150.663 46.764Z" fill="white"/>
<path d="M141.889 34.02C140.401 34.02 139.213 33.48 138.325 32.4C137.437 31.32 136.993 29.904 136.993 28.152C136.993 26.232 137.437 24.42 138.325 22.716C139.213 20.988 140.389 19.608 141.853 18.576C143.341 17.52 144.913 16.992 146.569 16.992C147.097 16.992 147.445 17.1 147.613 17.316C147.805 17.508 147.961 17.868 148.081 18.396C148.585 18.3 149.113 18.252 149.665 18.252C150.841 18.252 151.429 18.672 151.429 19.512C151.429 20.016 151.249 21.216 150.889 23.112C150.337 25.872 150.061 27.792 150.061 28.872C150.061 29.232 150.145 29.52 150.313 29.736C150.505 29.952 150.745 30.06 151.033 30.06C151.489 30.06 152.041 29.772 152.689 29.196C153.337 28.596 154.213 27.636 155.317 26.316C155.605 25.98 155.929 25.812 156.289 25.812C156.601 25.812 156.841 25.956 157.009 26.244C157.201 26.532 157.297 26.928 157.297 27.432C157.297 28.392 157.069 29.136 156.613 29.664C155.629 30.888 154.585 31.92 153.481 32.76C152.377 33.6 151.309 34.02 150.277 34.02C149.485 34.02 148.753 33.756 148.081 33.228C147.433 32.676 146.941 31.932 146.605 30.996C145.357 33.012 143.785 34.02 141.889 34.02ZM143.185 30.384C143.713 30.384 144.217 30.072 144.697 29.448C145.177 28.824 145.525 27.996 145.741 26.964L147.073 20.34C146.065 20.364 145.129 20.748 144.265 21.492C143.425 22.212 142.753 23.172 142.249 24.372C141.745 25.572 141.493 26.844 141.493 28.188C141.493 28.932 141.637 29.484 141.925 29.844C142.237 30.204 142.657 30.384 143.185 30.384Z" fill="white"/>
<path d="M115.028 34.02C114.116 34.02 113.468 33.54 113.084 32.58C112.724 31.62 112.544 30.084 112.544 27.972C112.544 24.852 112.988 21.888 113.876 19.08C114.092 18.384 114.44 17.88 114.92 17.568C115.424 17.232 116.12 17.064 117.008 17.064C117.488 17.064 117.824 17.124 118.016 17.244C118.208 17.364 118.304 17.592 118.304 17.928C118.304 18.312 118.124 19.176 117.764 20.52C117.524 21.48 117.332 22.32 117.188 23.04C117.044 23.736 116.924 24.612 116.828 25.668C117.476 23.796 118.244 22.212 119.132 20.916C120.044 19.62 120.968 18.66 121.904 18.036C122.864 17.388 123.764 17.064 124.604 17.064C125.444 17.064 126.032 17.256 126.368 17.64C126.728 18.024 126.908 18.612 126.908 19.404C126.908 20.172 126.68 21.564 126.224 23.58C126.032 24.444 125.9 25.092 125.828 25.524C127.028 22.572 128.36 20.424 129.824 19.08C131.288 17.736 132.656 17.064 133.928 17.064C135.488 17.064 136.268 17.844 136.268 19.404C136.268 20.34 136.004 22.032 135.476 24.48C135.02 26.568 134.792 27.948 134.792 28.62C134.792 29.58 135.14 30.06 135.836 30.06C136.316 30.06 136.88 29.772 137.528 29.196C138.2 28.596 139.088 27.636 140.192 26.316C140.48 25.98 140.804 25.812 141.164 25.812C141.476 25.812 141.716 25.956 141.884 26.244C142.076 26.532 142.172 26.928 142.172 27.432C142.172 28.392 141.944 29.136 141.488 29.664C140.456 30.936 139.34 31.98 138.14 32.796C136.964 33.612 135.62 34.02 134.108 34.02C132.884 34.02 131.96 33.672 131.336 32.976C130.712 32.256 130.4 31.224 130.4 29.88C130.4 29.208 130.568 28.008 130.904 26.28C131.216 24.768 131.372 23.724 131.372 23.148C131.372 22.764 131.24 22.572 130.976 22.572C130.664 22.572 130.22 22.98 129.644 23.796C129.068 24.588 128.492 25.644 127.916 26.964C127.34 28.284 126.872 29.676 126.512 31.14C126.248 32.292 125.936 33.06 125.576 33.444C125.24 33.828 124.688 34.02 123.92 34.02C123.128 34.02 122.528 33.648 122.12 32.904C121.736 32.136 121.544 31.212 121.544 30.132C121.544 29.22 121.664 27.9 121.904 26.172C122.096 24.636 122.192 23.628 122.192 23.148C122.192 22.764 122.06 22.572 121.796 22.572C121.436 22.572 120.98 23.004 120.428 23.868C119.876 24.732 119.336 25.836 118.808 27.18C118.304 28.524 117.896 29.844 117.584 31.14C117.32 32.268 117.008 33.036 116.648 33.444C116.312 33.828 115.772 34.02 115.028 34.02Z" fill="white"/>
<path d="M101.895 25.812C102.159 27.78 102.543 29.724 103.047 31.644C103.143 31.956 103.191 32.28 103.191 32.616C103.191 33.696 102.531 34.236 101.211 34.236C100.467 34.236 99.8905 34.032 99.4825 33.624C99.0985 33.216 98.7385 32.448 98.4025 31.32L98.3665 31.176C97.4545 32.304 96.6265 33.06 95.8825 33.444C95.1625 33.828 94.3225 34.02 93.3625 34.02C91.8985 34.02 90.6865 33.48 89.7265 32.4C88.7905 31.296 88.3225 29.868 88.3225 28.116C88.3225 26.196 88.7305 24.42 89.5465 22.788C90.3625 21.156 91.4785 19.824 92.8945 18.792C94.3105 17.736 95.8945 17.1 97.6465 16.884C98.1025 12.348 98.9665 8.4 100.239 5.04C101.535 1.68 103.251 0 105.387 0C106.419 0 107.271 0.468 107.943 1.404C108.639 2.34 108.987 3.756 108.987 5.652C108.987 8.292 108.339 11.376 107.043 14.904C105.747 18.432 104.031 22.068 101.895 25.812ZM104.991 3.528C104.295 3.528 103.635 5.304 103.011 8.856C102.411 12.408 102.003 16.272 101.787 20.448C104.451 14.688 105.783 10.008 105.783 6.408C105.783 5.496 105.699 4.788 105.531 4.284C105.387 3.78 105.207 3.528 104.991 3.528ZM94.6225 30.384C95.1025 30.384 95.5585 30.204 95.9905 29.844C96.4465 29.484 97.0225 28.788 97.7185 27.756C97.4785 26.004 97.3585 24.192 97.3585 22.32C97.3585 21.576 97.3705 21 97.3945 20.592C96.0745 20.976 94.9825 21.852 94.1185 23.22C93.2545 24.588 92.8225 26.1 92.8225 27.756C92.8225 29.508 93.4225 30.384 94.6225 30.384Z" fill="white"/>
<path d="M92.6895 25.812C93.0015 25.812 93.2415 25.956 93.4095 26.244C93.6015 26.532 93.6975 26.928 93.6975 27.432C93.6975 28.392 93.4695 29.136 93.0135 29.664C92.1255 30.744 90.8655 31.74 89.2335 32.652C87.6255 33.564 85.8975 34.02 84.0495 34.02C81.5295 34.02 79.5735 33.336 78.1815 31.968C76.7895 30.6 76.0935 28.728 76.0935 26.352C76.0935 24.696 76.4415 23.16 77.1375 21.744C77.8335 20.304 78.7935 19.164 80.0175 18.324C81.2655 17.484 82.6695 17.064 84.2295 17.064C85.6215 17.064 86.7375 17.484 87.5775 18.324C88.4175 19.14 88.8375 20.256 88.8375 21.672C88.8375 23.328 88.2375 24.756 87.0375 25.956C85.8615 27.132 83.8575 28.068 81.0255 28.764C81.6255 29.868 82.7655 30.42 84.4455 30.42C85.5255 30.42 86.7495 30.048 88.1175 29.304C89.5095 28.536 90.7095 27.54 91.7175 26.316C92.0055 25.98 92.3295 25.812 92.6895 25.812ZM83.6175 20.592C82.7295 20.592 81.9735 21.108 81.3495 22.14C80.7495 23.172 80.4495 24.42 80.4495 25.884V25.956C81.8655 25.62 82.9815 25.116 83.7975 24.444C84.6135 23.772 85.0215 22.992 85.0215 22.104C85.0215 21.648 84.8895 21.288 84.6255 21.024C84.3855 20.736 84.0495 20.592 83.6175 20.592Z" fill="white"/>
<path d="M80.3566 25.812C80.6686 25.812 80.9086 25.956 81.0766 26.244C81.2686 26.532 81.3646 26.928 81.3646 27.432C81.3646 28.392 81.1366 29.136 80.6806 29.664C79.6486 30.936 78.5206 31.98 77.2966 32.796C76.0726 33.612 74.6686 34.02 73.0846 34.02C68.1886 34.02 65.7406 30.576 65.7406 23.688C65.7406 22.632 65.7766 21.564 65.8486 20.484H64.4446C63.7246 20.484 63.2326 20.352 62.9686 20.088C62.7286 19.824 62.6086 19.404 62.6086 18.828C62.6086 17.484 63.1486 16.812 64.2286 16.812H66.2806C66.6886 14.172 67.3126 11.76 68.1526 9.576C68.9926 7.392 70.0006 5.652 71.1766 4.356C72.3766 3.06 73.6606 2.412 75.0286 2.412C76.0366 2.412 76.8286 2.856 77.4046 3.744C77.9806 4.632 78.2686 5.748 78.2686 7.092C78.2686 10.812 76.7086 14.052 73.5886 16.812H77.6206C78.0046 16.812 78.2806 16.896 78.4486 17.064C78.6166 17.232 78.7006 17.544 78.7006 18C78.7006 19.656 77.3446 20.484 74.6326 20.484H70.2406C70.1926 21.684 70.1686 22.62 70.1686 23.292C70.1686 25.788 70.4566 27.54 71.0326 28.548C71.6326 29.556 72.5686 30.06 73.8406 30.06C74.8726 30.06 75.7846 29.748 76.5766 29.124C77.3686 28.5 78.3046 27.564 79.3846 26.316C79.6726 25.98 79.9966 25.812 80.3566 25.812ZM74.0566 5.868C73.6966 5.868 73.2886 6.324 72.8326 7.236C72.4006 8.124 71.9806 9.372 71.5726 10.98C71.1886 12.564 70.8646 14.328 70.6006 16.272C72.0166 15.048 73.0726 13.68 73.7686 12.168C74.4886 10.632 74.8486 9.24 74.8486 7.992C74.8486 6.576 74.5846 5.868 74.0566 5.868Z" fill="white"/>
<path d="M53.6187 34.02C52.1307 34.02 50.9427 33.48 50.0547 32.4C49.1667 31.32 48.7227 29.904 48.7227 28.152C48.7227 26.232 49.1667 24.42 50.0547 22.716C50.9427 20.988 52.1187 19.608 53.5827 18.576C55.0707 17.52 56.6427 16.992 58.2987 16.992C58.8267 16.992 59.1747 17.1 59.3427 17.316C59.5347 17.508 59.6907 17.868 59.8107 18.396C60.3147 18.3 60.8427 18.252 61.3947 18.252C62.5707 18.252 63.1587 18.672 63.1587 19.512C63.1587 20.016 62.9787 21.216 62.6187 23.112C62.0667 25.872 61.7907 27.792 61.7907 28.872C61.7907 29.232 61.8747 29.52 62.0427 29.736C62.2347 29.952 62.4747 30.06 62.7627 30.06C63.2187 30.06 63.7707 29.772 64.4187 29.196C65.0667 28.596 65.9427 27.636 67.0467 26.316C67.3347 25.98 67.6587 25.812 68.0187 25.812C68.3307 25.812 68.5707 25.956 68.7387 26.244C68.9307 26.532 69.0267 26.928 69.0267 27.432C69.0267 28.392 68.7987 29.136 68.3427 29.664C67.3587 30.888 66.3147 31.92 65.2107 32.76C64.1067 33.6 63.0387 34.02 62.0067 34.02C61.2147 34.02 60.4827 33.756 59.8107 33.228C59.1627 32.676 58.6707 31.932 58.3347 30.996C57.0867 33.012 55.5147 34.02 53.6187 34.02ZM54.9147 30.384C55.4427 30.384 55.9467 30.072 56.4267 29.448C56.9067 28.824 57.2547 27.996 57.4707 26.964L58.8027 20.34C57.7947 20.364 56.8587 20.748 55.9947 21.492C55.1547 22.212 54.4827 23.172 53.9787 24.372C53.4747 25.572 53.2227 26.844 53.2227 28.188C53.2227 28.932 53.3667 29.484 53.6547 29.844C53.9667 30.204 54.3867 30.384 54.9147 30.384Z" fill="white"/>
<path d="M53.0897 25.812C53.4017 25.812 53.6417 25.956 53.8097 26.244C54.0017 26.532 54.0977 26.928 54.0977 27.432C54.0977 28.392 53.8697 29.136 53.4137 29.664C52.5257 30.744 51.2657 31.74 49.6337 32.652C48.0257 33.564 46.2977 34.02 44.4497 34.02C41.9297 34.02 39.9737 33.336 38.5817 31.968C37.1897 30.6 36.4937 28.728 36.4937 26.352C36.4937 24.696 36.8417 23.16 37.5377 21.744C38.2337 20.304 39.1937 19.164 40.4177 18.324C41.6657 17.484 43.0697 17.064 44.6297 17.064C46.0217 17.064 47.1377 17.484 47.9777 18.324C48.8177 19.14 49.2377 20.256 49.2377 21.672C49.2377 23.328 48.6377 24.756 47.4377 25.956C46.2617 27.132 44.2577 28.068 41.4257 28.764C42.0257 29.868 43.1657 30.42 44.8457 30.42C45.9257 30.42 47.1497 30.048 48.5177 29.304C49.9097 28.536 51.1097 27.54 52.1177 26.316C52.4057 25.98 52.7297 25.812 53.0897 25.812ZM44.0177 20.592C43.1297 20.592 42.3737 21.108 41.7497 22.14C41.1497 23.172 40.8497 24.42 40.8497 25.884V25.956C42.2657 25.62 43.3817 25.116 44.1977 24.444C45.0137 23.772 45.4217 22.992 45.4217 22.104C45.4217 21.648 45.2897 21.288 45.0257 21.024C44.7857 20.736 44.4497 20.592 44.0177 20.592Z" fill="white"/>
<path d="M36.0641 25.812C36.3761 25.812 36.6161 25.956 36.7841 26.244C36.9761 26.532 37.0721 26.928 37.0721 27.432C37.0721 28.368 36.8441 29.112 36.3881 29.664C34.0121 32.568 31.4801 34.02 28.7921 34.02C26.4641 34.02 24.6041 33.12 23.2121 31.32C21.8201 29.52 21.1241 26.94 21.1241 23.58C21.1241 22.764 21.1601 21.948 21.2321 21.132C19.6481 21.42 17.9201 21.636 16.0481 21.78C14.8001 21.876 13.9481 21.936 13.4921 21.96C13.0121 24.408 12.3401 27.408 11.4761 30.96C10.9721 33.048 10.0121 34.092 8.59607 34.092C7.06007 34.092 6.29207 33.396 6.29207 32.004C6.29207 31.692 6.35207 31.26 6.47207 30.708C7.28807 27.42 7.93607 24.636 8.41607 22.356L6.68807 22.428C5.89607 22.428 5.32007 22.296 4.96007 22.032C4.60007 21.744 4.42007 21.288 4.42007 20.664C4.42007 19.872 4.64807 19.296 5.10407 18.936C5.56007 18.552 6.31607 18.336 7.37207 18.288L9.28007 18.216C9.90407 14.832 10.2161 12.252 10.2161 10.476C10.2161 9.348 10.0481 8.58 9.71207 8.172C9.37607 7.764 8.93207 7.56 8.38007 7.56C6.70007 7.56 4.80407 8.964 2.69207 11.772C2.38007 12.18 2.03207 12.384 1.64807 12.384C1.31207 12.384 1.02407 12.228 0.784072 11.916C0.544072 11.604 0.424072 11.208 0.424072 10.728C0.424072 9.984 0.724072 9.192 1.32407 8.352C2.38007 6.888 3.71207 5.688 5.32007 4.752C6.92807 3.792 8.56007 3.312 10.2161 3.312C11.7761 3.312 12.9761 3.852 13.8161 4.932C14.6801 5.988 15.1121 7.644 15.1121 9.9C15.1121 11.892 14.8241 14.592 14.2481 18L17.7761 17.82C19.2881 17.748 20.5841 17.628 21.6641 17.46C22.0961 14.82 22.7561 12.348 23.6441 10.044C24.5321 7.74 25.6361 5.868 26.9561 4.428C28.2761 2.988 29.7521 2.268 31.3841 2.268C32.5841 2.268 33.5321 2.748 34.2281 3.708C34.9241 4.644 35.2721 5.88 35.2721 7.416C35.2721 13.368 32.2361 17.496 26.1641 19.8C26.0921 20.76 26.0561 21.756 26.0561 22.788C26.0561 25.308 26.3681 27.096 26.9921 28.152C27.6161 29.208 28.4921 29.736 29.6201 29.736C30.6041 29.736 31.5041 29.484 32.3201 28.98C33.1361 28.452 34.0601 27.564 35.0921 26.316C35.3801 25.98 35.7041 25.812 36.0641 25.812ZM31.2041 5.4C30.6761 5.4 30.1121 5.88 29.5121 6.84C28.9361 7.8 28.3841 9.108 27.8561 10.764C27.3281 12.42 26.9081 14.232 26.5961 16.2C28.5161 15.408 29.9321 14.28 30.8441 12.816C31.7561 11.352 32.2121 9.468 32.2121 7.164C32.2121 6.612 32.1161 6.18 31.9241 5.868C31.7321 5.556 31.4921 5.4 31.2041 5.4Z" fill="white"/>
</svg>
