<svg width="219" height="34" viewBox="0 0 219 34" fill="none" xmlns="http://www.w3.org/2000/svg">
<path d="M49.7699 27V6.63636H54.0753V15.0384H62.8153V6.63636H67.1108V27H62.8153V18.5881H54.0753V27H49.7699ZM75.8612 27.2983C74.2902 27.2983 72.9379 26.9801 71.8044 26.3438C70.6775 25.7008 69.8091 24.7926 69.1993 23.6193C68.5894 22.4394 68.2845 21.044 68.2845 19.4332C68.2845 17.8622 68.5894 16.4834 69.1993 15.2969C69.8091 14.1103 70.6675 13.1856 71.7745 12.5227C72.8882 11.8598 74.1941 11.5284 75.6922 11.5284C76.6997 11.5284 77.6377 11.6908 78.5061 12.0156C79.3811 12.3338 80.1434 12.8144 80.793 13.4574C81.4493 14.1004 81.9597 14.9091 82.3243 15.8835C82.6888 16.8513 82.8711 17.9848 82.8711 19.2841V20.4474H69.9748V17.8224H78.8839C78.8839 17.2126 78.7513 16.6723 78.4862 16.2017C78.221 15.7311 77.8531 15.3632 77.3825 15.098C76.9185 14.8262 76.3782 14.6903 75.7618 14.6903C75.1188 14.6903 74.5487 14.8395 74.0515 15.1378C73.561 15.4295 73.1765 15.8239 72.8981 16.321C72.6197 16.8116 72.4772 17.3584 72.4706 17.9616V20.4574C72.4706 21.2131 72.6098 21.866 72.8882 22.4162C73.1732 22.9664 73.5743 23.3906 74.0913 23.6889C74.6084 23.9872 75.2215 24.1364 75.9308 24.1364C76.4014 24.1364 76.8323 24.0701 77.2234 23.9375C77.6145 23.8049 77.9493 23.6061 78.2277 23.3409C78.5061 23.0758 78.7182 22.7509 78.864 22.3665L82.7816 22.625C82.5828 23.5663 82.1751 24.3883 81.5586 25.0909C80.9488 25.7869 80.16 26.3305 79.1922 26.7216C78.231 27.1061 77.1207 27.2983 75.8612 27.2983ZM88.3105 27.2884C87.336 27.2884 86.4677 27.1193 85.7053 26.7812C84.943 26.4366 84.3398 25.9295 83.8957 25.2599C83.4582 24.5838 83.2394 23.742 83.2394 22.7344C83.2394 21.8859 83.3952 21.1733 83.7068 20.5966C84.0183 20.0199 84.4426 19.5559 84.9795 19.2045C85.5164 18.8532 86.1263 18.5881 86.809 18.4091C87.4984 18.2301 88.221 18.1042 88.9766 18.0312C89.8649 17.9384 90.5808 17.8523 91.1244 17.7727C91.6679 17.6866 92.0623 17.5606 92.3076 17.3949C92.5529 17.2292 92.6755 16.9839 92.6755 16.6591V16.5994C92.6755 15.9697 92.4766 15.4825 92.0789 15.1378C91.6878 14.7931 91.131 14.6207 90.4085 14.6207C89.6462 14.6207 89.0396 14.7898 88.5889 15.1278C88.1381 15.4593 87.8398 15.8769 87.694 16.3807L83.7764 16.0625C83.9752 15.1345 84.3663 14.3324 84.9497 13.6562C85.533 12.9735 86.2854 12.4498 87.2068 12.0852C88.1348 11.714 89.2087 11.5284 90.4284 11.5284C91.2768 11.5284 92.0889 11.6278 92.8644 11.8267C93.6466 12.0256 94.3393 12.3338 94.9426 12.7514C95.5524 13.169 96.033 13.706 96.3843 14.3622C96.7356 15.0118 96.9113 15.7907 96.9113 16.6989V27H92.8943V24.8821H92.7749C92.5297 25.3594 92.2016 25.7803 91.7906 26.1449C91.3796 26.5028 90.8857 26.7846 90.309 26.9901C89.7323 27.1889 89.0661 27.2884 88.3105 27.2884ZM89.5235 24.3651C90.1466 24.3651 90.6968 24.2424 91.1741 23.9972C91.6514 23.7453 92.0259 23.4072 92.2977 22.983C92.5695 22.5587 92.7053 22.0781 92.7053 21.5412V19.9205C92.5728 20.0066 92.3905 20.0862 92.1585 20.1591C91.9331 20.2254 91.6779 20.2884 91.3928 20.348C91.1078 20.401 90.8228 20.4508 90.5377 20.4972C90.2527 20.5369 89.9942 20.5734 89.7622 20.6065C89.265 20.6795 88.8308 20.7955 88.4596 20.9545C88.0884 21.1136 87.8 21.3291 87.5945 21.6009C87.3891 21.866 87.2863 22.1974 87.2863 22.5952C87.2863 23.1719 87.4951 23.6127 87.9127 23.9176C88.337 24.2159 88.8739 24.3651 89.5235 24.3651ZM106.641 11.7273V14.9091H97.4437V11.7273H106.641ZM99.5317 8.06818H103.768V22.3068C103.768 22.6979 103.827 23.0028 103.947 23.2216C104.066 23.4337 104.232 23.5829 104.444 23.669C104.662 23.7552 104.914 23.7983 105.199 23.7983C105.398 23.7983 105.597 23.7817 105.796 23.7486C105.995 23.7088 106.147 23.679 106.253 23.6591L106.92 26.8111C106.707 26.8774 106.409 26.9536 106.025 27.0398C105.64 27.1326 105.173 27.1889 104.623 27.2088C103.602 27.2486 102.707 27.1127 101.938 26.8011C101.176 26.4896 100.582 26.0057 100.158 25.3494C99.7339 24.6932 99.5251 23.8646 99.5317 22.8636V8.06818ZM114.517 27.2983C112.945 27.2983 111.593 26.9801 110.46 26.3438C109.333 25.7008 108.464 24.7926 107.855 23.6193C107.245 22.4394 106.94 21.044 106.94 19.4332C106.94 17.8622 107.245 16.4834 107.855 15.2969C108.464 14.1103 109.323 13.1856 110.43 12.5227C111.543 11.8598 112.849 11.5284 114.347 11.5284C115.355 11.5284 116.293 11.6908 117.161 12.0156C118.036 12.3338 118.799 12.8144 119.448 13.4574C120.105 14.1004 120.615 14.9091 120.98 15.8835C121.344 16.8513 121.526 17.9848 121.526 19.2841V20.4474H108.63V17.8224H117.539C117.539 17.2126 117.407 16.6723 117.142 16.2017C116.876 15.7311 116.508 15.3632 116.038 15.098C115.574 14.8262 115.034 14.6903 114.417 14.6903C113.774 14.6903 113.204 14.8395 112.707 15.1378C112.216 15.4295 111.832 15.8239 111.553 16.321C111.275 16.8116 111.133 17.3584 111.126 17.9616V20.4574C111.126 21.2131 111.265 21.866 111.543 22.4162C111.829 22.9664 112.23 23.3906 112.747 23.6889C113.264 23.9872 113.877 24.1364 114.586 24.1364C115.057 24.1364 115.488 24.0701 115.879 23.9375C116.27 23.8049 116.605 23.6061 116.883 23.3409C117.161 23.0758 117.374 22.7509 117.519 22.3665L121.437 22.625C121.238 23.5663 120.83 24.3883 120.214 25.0909C119.604 25.7869 118.815 26.3305 117.847 26.7216C116.886 27.1061 115.776 27.2983 114.517 27.2983ZM128.238 27.2486C127.078 27.2486 126.028 26.9503 125.087 26.3537C124.152 25.7505 123.409 24.8655 122.859 23.6989C122.316 22.5256 122.044 21.0871 122.044 19.3835C122.044 17.6335 122.326 16.1785 122.889 15.0185C123.453 13.8518 124.202 12.9801 125.136 12.4034C126.078 11.8201 127.108 11.5284 128.229 11.5284C129.084 11.5284 129.796 11.6742 130.366 11.9659C130.943 12.2509 131.407 12.6089 131.758 13.0398C132.116 13.464 132.388 13.8816 132.574 14.2926H132.703V6.63636H136.929V27H132.753V24.554H132.574C132.375 24.9782 132.093 25.3991 131.729 25.8168C131.371 26.2277 130.903 26.5691 130.327 26.8409C129.756 27.1127 129.06 27.2486 128.238 27.2486ZM129.581 23.8778C130.264 23.8778 130.84 23.6922 131.311 23.321C131.788 22.9432 132.153 22.4162 132.405 21.7401C132.663 21.0639 132.792 20.2718 132.792 19.3636C132.792 18.4555 132.667 17.6667 132.415 16.9972C132.163 16.3277 131.798 15.8106 131.321 15.446C130.844 15.0814 130.264 14.8991 129.581 14.8991C128.885 14.8991 128.298 15.0881 127.821 15.4659C127.344 15.8437 126.982 16.3674 126.737 17.0369C126.492 17.7064 126.369 18.482 126.369 19.3636C126.369 20.2519 126.492 21.0374 126.737 21.7202C126.989 22.3963 127.35 22.9266 127.821 23.3111C128.298 23.6889 128.885 23.8778 129.581 23.8778ZM143.611 6.63636H148.921L154.529 20.3182H154.768L160.376 6.63636H165.685V27H161.509V13.7457H161.34L156.07 26.9006H153.227L147.957 13.696H147.788V27H143.611V6.63636ZM171.828 27.2884C170.854 27.2884 169.985 27.1193 169.223 26.7812C168.461 26.4366 167.857 25.9295 167.413 25.2599C166.976 24.5838 166.757 23.742 166.757 22.7344C166.757 21.8859 166.913 21.1733 167.224 20.5966C167.536 20.0199 167.96 19.5559 168.497 19.2045C169.034 18.8532 169.644 18.5881 170.327 18.4091C171.016 18.2301 171.739 18.1042 172.494 18.0312C173.383 17.9384 174.098 17.8523 174.642 17.7727C175.186 17.6866 175.58 17.5606 175.825 17.3949C176.071 17.2292 176.193 16.9839 176.193 16.6591V16.5994C176.193 15.9697 175.994 15.4825 175.597 15.1378C175.205 14.7931 174.649 14.6207 173.926 14.6207C173.164 14.6207 172.557 14.7898 172.107 15.1278C171.656 15.4593 171.357 15.8769 171.212 16.3807L167.294 16.0625C167.493 15.1345 167.884 14.3324 168.467 13.6562C169.051 12.9735 169.803 12.4498 170.724 12.0852C171.652 11.714 172.726 11.5284 173.946 11.5284C174.794 11.5284 175.607 11.6278 176.382 11.8267C177.164 12.0256 177.857 12.3338 178.46 12.7514C179.07 13.169 179.551 13.706 179.902 14.3622C180.253 15.0118 180.429 15.7907 180.429 16.6989V27H176.412V24.8821H176.293C176.047 25.3594 175.719 25.7803 175.308 26.1449C174.897 26.5028 174.403 26.7846 173.827 26.9901C173.25 27.1889 172.584 27.2884 171.828 27.2884ZM173.041 24.3651C173.664 24.3651 174.214 24.2424 174.692 23.9972C175.169 23.7453 175.544 23.4072 175.815 22.983C176.087 22.5587 176.223 22.0781 176.223 21.5412V19.9205C176.09 20.0066 175.908 20.0862 175.676 20.1591C175.451 20.2254 175.196 20.2884 174.91 20.348C174.625 20.401 174.34 20.4508 174.055 20.4972C173.77 20.5369 173.512 20.5734 173.28 20.6065C172.783 20.6795 172.348 20.7955 171.977 20.9545C171.606 21.1136 171.318 21.3291 171.112 21.6009C170.907 21.866 170.804 22.1974 170.804 22.5952C170.804 23.1719 171.013 23.6127 171.43 23.9176C171.855 24.2159 172.392 24.3651 173.041 24.3651ZM182.035 32.7273V11.7273H186.211V14.2926H186.4C186.586 13.8816 186.854 13.464 187.206 13.0398C187.564 12.6089 188.028 12.2509 188.598 11.9659C189.174 11.6742 189.89 11.5284 190.745 11.5284C191.859 11.5284 192.887 11.8201 193.828 12.4034C194.769 12.9801 195.521 13.8518 196.085 15.0185C196.648 16.1785 196.93 17.6335 196.93 19.3835C196.93 21.0871 196.655 22.5256 196.105 23.6989C195.561 24.8655 194.819 25.7505 193.878 26.3537C192.943 26.9503 191.896 27.2486 190.735 27.2486C189.914 27.2486 189.214 27.1127 188.637 26.8409C188.067 26.5691 187.6 26.2277 187.235 25.8168C186.871 25.3991 186.592 24.9782 186.4 24.554H186.271V32.7273H182.035ZM186.181 19.3636C186.181 20.2718 186.307 21.0639 186.559 21.7401C186.811 22.4162 187.176 22.9432 187.653 23.321C188.13 23.6922 188.71 23.8778 189.393 23.8778C190.083 23.8778 190.666 23.6889 191.143 23.3111C191.62 22.9266 191.982 22.3963 192.227 21.7202C192.479 21.0374 192.605 20.2519 192.605 19.3636C192.605 18.482 192.482 17.7064 192.237 17.0369C191.992 16.3674 191.63 15.8437 191.153 15.4659C190.676 15.0881 190.089 14.8991 189.393 14.8991C188.704 14.8991 188.12 15.0814 187.643 15.446C187.173 15.8106 186.811 16.3277 186.559 16.9972C186.307 17.6667 186.181 18.4555 186.181 19.3636ZM210.781 16.0824L206.903 16.321C206.837 15.9896 206.695 15.6913 206.476 15.4261C206.257 15.1544 205.969 14.9389 205.611 14.7798C205.26 14.6141 204.839 14.5312 204.348 14.5312C203.692 14.5312 203.138 14.6705 202.688 14.9489C202.237 15.2206 202.011 15.5852 202.011 16.0426C202.011 16.4072 202.157 16.7154 202.449 16.9673C202.741 17.2192 203.241 17.4214 203.95 17.5739L206.715 18.1307C208.199 18.4356 209.306 18.9261 210.036 19.6023C210.765 20.2784 211.129 21.1667 211.129 22.267C211.129 23.268 210.834 24.1463 210.244 24.902C209.661 25.6577 208.859 26.2476 207.838 26.6719C206.824 27.0895 205.654 27.2983 204.328 27.2983C202.306 27.2983 200.696 26.8774 199.496 26.0355C198.303 25.187 197.603 24.0336 197.398 22.5753L201.564 22.3565C201.69 22.973 201.995 23.4437 202.479 23.7685C202.963 24.0866 203.582 24.2457 204.338 24.2457C205.081 24.2457 205.677 24.1032 206.128 23.8182C206.585 23.5265 206.817 23.152 206.824 22.6946C206.817 22.3101 206.655 21.9953 206.337 21.75C206.019 21.4981 205.528 21.3059 204.865 21.1733L202.22 20.6463C200.729 20.348 199.618 19.831 198.889 19.0952C198.167 18.3594 197.805 17.4214 197.805 16.2812C197.805 15.3002 198.071 14.455 198.601 13.7457C199.138 13.0365 199.89 12.4896 200.858 12.1051C201.832 11.7206 202.973 11.5284 204.278 11.5284C206.207 11.5284 207.725 11.9361 208.832 12.7514C209.946 13.5668 210.596 14.6771 210.781 16.0824ZM214.592 27.2585C213.936 27.2585 213.373 27.0265 212.902 26.5625C212.438 26.0919 212.206 25.5284 212.206 24.8722C212.206 24.2225 212.438 23.6657 212.902 23.2017C213.373 22.7377 213.936 22.5057 214.592 22.5057C215.229 22.5057 215.786 22.7377 216.263 23.2017C216.74 23.6657 216.979 24.2225 216.979 24.8722C216.979 25.3097 216.866 25.7107 216.641 26.0753C216.422 26.4332 216.134 26.7216 215.776 26.9403C215.418 27.1525 215.023 27.2585 214.592 27.2585Z" fill="white"/>
<circle cx="13.4776" cy="17.4776" r="13.4776" fill="#7AEAFC"/>
<circle cx="29.5223" cy="17.4776" r="13.4776" fill="#FFFD8B"/>
<path fill-rule="evenodd" clip-rule="evenodd" d="M21.4999 28.2291C24.8099 25.7734 26.9551 21.8363 26.9551 17.3981C26.9551 12.96 24.8099 9.02292 21.4999 6.56716C18.1899 9.02292 16.0447 12.96 16.0447 17.3981C16.0447 21.8363 18.1899 25.7734 21.4999 28.2291Z" fill="#FF6208"/>
</svg>
