<svg width="180" height="51" viewBox="0 0 180 51" fill="none" xmlns="http://www.w3.org/2000/svg">
<path d="M173.744 34.972C172.496 34.972 171.536 34.684 170.864 34.108C170.216 33.532 169.892 32.884 169.892 32.164C169.892 31.54 170.12 31 170.576 30.544C171.032 30.088 171.704 29.86 172.592 29.86C172.904 29.86 173.264 29.896 173.672 29.968C174.104 30.016 174.428 30.052 174.644 30.076C174.62 29.452 174.476 28.864 174.212 28.312C173.972 27.76 173.66 27.232 173.276 26.728C172.892 26.2 172.532 25.744 172.196 25.36C171.452 26.776 170.708 27.952 169.964 28.888C169.244 29.824 168.452 30.712 167.588 31.552C167.156 31.984 166.7 32.2 166.22 32.2C165.836 32.2 165.524 32.068 165.284 31.804C165.044 31.516 164.924 31.168 164.924 30.76C164.924 30.28 165.092 29.836 165.428 29.428L165.896 28.852C167.216 27.22 168.212 25.876 168.884 24.82C169.316 24.124 169.748 23.296 170.18 22.336C170.636 21.376 171.224 20.068 171.944 18.412C172.4 17.356 173.348 16.828 174.788 16.828C175.46 16.828 175.928 16.888 176.192 17.008C176.456 17.128 176.588 17.32 176.588 17.584C176.588 17.728 176.54 17.956 176.444 18.268C176.348 18.58 176.216 18.892 176.048 19.204C175.616 20.068 175.4 20.8 175.4 21.4C175.4 21.76 175.52 22.156 175.76 22.588C176.024 23.02 176.42 23.56 176.948 24.208C177.716 25.216 178.292 26.08 178.676 26.8C179.084 27.496 179.288 28.264 179.288 29.104C179.288 30.112 179.048 31.072 178.568 31.984C178.112 32.872 177.464 33.592 176.624 34.144C175.784 34.696 174.824 34.972 173.744 34.972Z" fill="#EC5A13"/>
<path d="M166.827 23.02C166.827 24.916 166.383 26.716 165.495 28.42C164.631 30.1 163.467 31.468 162.003 32.524C160.563 33.58 159.015 34.132 157.359 34.18C157.047 38.812 156.339 42.676 155.235 45.772C154.131 48.892 152.511 50.452 150.375 50.452C149.079 50.452 148.119 49.984 147.495 49.048C146.871 48.112 146.559 46.816 146.559 45.16C146.559 42.808 147.099 40.06 148.179 36.916C149.259 33.796 150.927 30.352 153.183 26.584C153.183 23.08 153.159 20.644 153.111 19.276C153.087 18.58 153.363 18.028 153.939 17.62C154.515 17.212 155.235 17.008 156.099 17.008C156.603 17.008 156.963 17.116 157.179 17.332C157.419 17.524 157.551 17.92 157.575 18.52C157.575 19.12 157.587 19.564 157.611 19.852C158.379 18.892 159.135 18.208 159.879 17.8C160.623 17.368 161.415 17.152 162.255 17.152C163.599 17.152 164.691 17.692 165.531 18.772C166.395 19.852 166.827 21.268 166.827 23.02ZM157.539 30.724C158.403 30.532 159.195 30.064 159.915 29.32C160.659 28.552 161.247 27.616 161.679 26.512C162.111 25.384 162.327 24.208 162.327 22.984C162.327 22.264 162.183 21.724 161.895 21.364C161.607 20.98 161.223 20.788 160.743 20.788C159.879 20.788 158.835 21.7 157.611 23.524C157.587 24.58 157.575 26.128 157.575 28.168C157.575 29.272 157.563 30.124 157.539 30.724ZM150.663 46.924C151.311 46.924 151.851 45.508 152.283 42.676C152.715 39.868 152.991 36.364 153.111 32.164C152.079 34.564 151.263 36.856 150.663 39.04C150.063 41.224 149.763 43.06 149.763 44.548C149.763 45.316 149.859 45.904 150.051 46.312C150.219 46.72 150.423 46.924 150.663 46.924Z" fill="#EC5A13"/>
<path d="M141.889 34.18C140.401 34.18 139.213 33.64 138.325 32.56C137.437 31.48 136.993 30.064 136.993 28.312C136.993 26.392 137.437 24.58 138.325 22.876C139.213 21.148 140.389 19.768 141.853 18.736C143.341 17.68 144.913 17.152 146.569 17.152C147.097 17.152 147.445 17.26 147.613 17.476C147.805 17.668 147.961 18.028 148.081 18.556C148.585 18.46 149.113 18.412 149.665 18.412C150.841 18.412 151.429 18.832 151.429 19.672C151.429 20.176 151.249 21.376 150.889 23.272C150.337 26.032 150.061 27.952 150.061 29.032C150.061 29.392 150.145 29.68 150.313 29.896C150.505 30.112 150.745 30.22 151.033 30.22C151.489 30.22 152.041 29.932 152.689 29.356C153.337 28.756 154.213 27.796 155.317 26.476C155.605 26.14 155.929 25.972 156.289 25.972C156.601 25.972 156.841 26.116 157.009 26.404C157.201 26.692 157.297 27.088 157.297 27.592C157.297 28.552 157.069 29.296 156.613 29.824C155.629 31.048 154.585 32.08 153.481 32.92C152.377 33.76 151.309 34.18 150.277 34.18C149.485 34.18 148.753 33.916 148.081 33.388C147.433 32.836 146.941 32.092 146.605 31.156C145.357 33.172 143.785 34.18 141.889 34.18ZM143.185 30.544C143.713 30.544 144.217 30.232 144.697 29.608C145.177 28.984 145.525 28.156 145.741 27.124L147.073 20.5C146.065 20.524 145.129 20.908 144.265 21.652C143.425 22.372 142.753 23.332 142.249 24.532C141.745 25.732 141.493 27.004 141.493 28.348C141.493 29.092 141.637 29.644 141.925 30.004C142.237 30.364 142.657 30.544 143.185 30.544Z" fill="#EC5A13"/>
<path d="M115.028 34.18C114.116 34.18 113.468 33.7 113.084 32.74C112.724 31.78 112.544 30.244 112.544 28.132C112.544 25.012 112.988 22.048 113.876 19.24C114.092 18.544 114.44 18.04 114.92 17.728C115.424 17.392 116.12 17.224 117.008 17.224C117.488 17.224 117.824 17.284 118.016 17.404C118.208 17.524 118.304 17.752 118.304 18.088C118.304 18.472 118.124 19.336 117.764 20.68C117.524 21.64 117.332 22.48 117.188 23.2C117.044 23.896 116.924 24.772 116.828 25.828C117.476 23.956 118.244 22.372 119.132 21.076C120.044 19.78 120.968 18.82 121.904 18.196C122.864 17.548 123.764 17.224 124.604 17.224C125.444 17.224 126.032 17.416 126.368 17.8C126.728 18.184 126.908 18.772 126.908 19.564C126.908 20.332 126.68 21.724 126.224 23.74C126.032 24.604 125.9 25.252 125.828 25.684C127.028 22.732 128.36 20.584 129.824 19.24C131.288 17.896 132.656 17.224 133.928 17.224C135.488 17.224 136.268 18.004 136.268 19.564C136.268 20.5 136.004 22.192 135.476 24.64C135.02 26.728 134.792 28.108 134.792 28.78C134.792 29.74 135.14 30.22 135.836 30.22C136.316 30.22 136.88 29.932 137.528 29.356C138.2 28.756 139.088 27.796 140.192 26.476C140.48 26.14 140.804 25.972 141.164 25.972C141.476 25.972 141.716 26.116 141.884 26.404C142.076 26.692 142.172 27.088 142.172 27.592C142.172 28.552 141.944 29.296 141.488 29.824C140.456 31.096 139.34 32.14 138.14 32.956C136.964 33.772 135.62 34.18 134.108 34.18C132.884 34.18 131.96 33.832 131.336 33.136C130.712 32.416 130.4 31.384 130.4 30.04C130.4 29.368 130.568 28.168 130.904 26.44C131.216 24.928 131.372 23.884 131.372 23.308C131.372 22.924 131.24 22.732 130.976 22.732C130.664 22.732 130.22 23.14 129.644 23.956C129.068 24.748 128.492 25.804 127.916 27.124C127.34 28.444 126.872 29.836 126.512 31.3C126.248 32.452 125.936 33.22 125.576 33.604C125.24 33.988 124.688 34.18 123.92 34.18C123.128 34.18 122.528 33.808 122.12 33.064C121.736 32.296 121.544 31.372 121.544 30.292C121.544 29.38 121.664 28.06 121.904 26.332C122.096 24.796 122.192 23.788 122.192 23.308C122.192 22.924 122.06 22.732 121.796 22.732C121.436 22.732 120.98 23.164 120.428 24.028C119.876 24.892 119.336 25.996 118.808 27.34C118.304 28.684 117.896 30.004 117.584 31.3C117.32 32.428 117.008 33.196 116.648 33.604C116.312 33.988 115.772 34.18 115.028 34.18Z" fill="#EC5A13"/>
<path d="M101.895 25.972C102.159 27.94 102.543 29.884 103.047 31.804C103.143 32.116 103.191 32.44 103.191 32.776C103.191 33.856 102.531 34.396 101.211 34.396C100.467 34.396 99.8905 34.192 99.4825 33.784C99.0985 33.376 98.7385 32.608 98.4025 31.48L98.3665 31.336C97.4545 32.464 96.6265 33.22 95.8825 33.604C95.1625 33.988 94.3225 34.18 93.3625 34.18C91.8985 34.18 90.6865 33.64 89.7265 32.56C88.7905 31.456 88.3225 30.028 88.3225 28.276C88.3225 26.356 88.7305 24.58 89.5465 22.948C90.3625 21.316 91.4785 19.984 92.8945 18.952C94.3105 17.896 95.8945 17.26 97.6465 17.044C98.1025 12.508 98.9665 8.56 100.239 5.2C101.535 1.84 103.251 0.159996 105.387 0.159996C106.419 0.159996 107.271 0.627996 107.943 1.564C108.639 2.5 108.987 3.916 108.987 5.812C108.987 8.452 108.339 11.536 107.043 15.064C105.747 18.592 104.031 22.228 101.895 25.972ZM104.991 3.688C104.295 3.688 103.635 5.464 103.011 9.016C102.411 12.568 102.003 16.432 101.787 20.608C104.451 14.848 105.783 10.168 105.783 6.568C105.783 5.656 105.699 4.948 105.531 4.444C105.387 3.94 105.207 3.688 104.991 3.688ZM94.6225 30.544C95.1025 30.544 95.5585 30.364 95.9905 30.004C96.4465 29.644 97.0225 28.948 97.7185 27.916C97.4785 26.164 97.3585 24.352 97.3585 22.48C97.3585 21.736 97.3705 21.16 97.3945 20.752C96.0745 21.136 94.9825 22.012 94.1185 23.38C93.2545 24.748 92.8225 26.26 92.8225 27.916C92.8225 29.668 93.4225 30.544 94.6225 30.544Z" fill="#EC5A13"/>
<path d="M92.6895 25.972C93.0015 25.972 93.2415 26.116 93.4095 26.404C93.6015 26.692 93.6975 27.088 93.6975 27.592C93.6975 28.552 93.4695 29.296 93.0135 29.824C92.1255 30.904 90.8655 31.9 89.2335 32.812C87.6255 33.724 85.8975 34.18 84.0495 34.18C81.5295 34.18 79.5735 33.496 78.1815 32.128C76.7895 30.76 76.0935 28.888 76.0935 26.512C76.0935 24.856 76.4415 23.32 77.1375 21.904C77.8335 20.464 78.7935 19.324 80.0175 18.484C81.2655 17.644 82.6695 17.224 84.2295 17.224C85.6215 17.224 86.7375 17.644 87.5775 18.484C88.4175 19.3 88.8375 20.416 88.8375 21.832C88.8375 23.488 88.2375 24.916 87.0375 26.116C85.8615 27.292 83.8575 28.228 81.0255 28.924C81.6255 30.028 82.7655 30.58 84.4455 30.58C85.5255 30.58 86.7495 30.208 88.1175 29.464C89.5095 28.696 90.7095 27.7 91.7175 26.476C92.0055 26.14 92.3295 25.972 92.6895 25.972ZM83.6175 20.752C82.7295 20.752 81.9735 21.268 81.3495 22.3C80.7495 23.332 80.4495 24.58 80.4495 26.044V26.116C81.8655 25.78 82.9815 25.276 83.7975 24.604C84.6135 23.932 85.0215 23.152 85.0215 22.264C85.0215 21.808 84.8895 21.448 84.6255 21.184C84.3855 20.896 84.0495 20.752 83.6175 20.752Z" fill="#EC5A13"/>
<path d="M80.3566 25.972C80.6686 25.972 80.9086 26.116 81.0766 26.404C81.2686 26.692 81.3646 27.088 81.3646 27.592C81.3646 28.552 81.1366 29.296 80.6806 29.824C79.6486 31.096 78.5206 32.14 77.2966 32.956C76.0726 33.772 74.6686 34.18 73.0846 34.18C68.1886 34.18 65.7406 30.736 65.7406 23.848C65.7406 22.792 65.7766 21.724 65.8486 20.644H64.4446C63.7246 20.644 63.2326 20.512 62.9686 20.248C62.7286 19.984 62.6086 19.564 62.6086 18.988C62.6086 17.644 63.1486 16.972 64.2286 16.972H66.2806C66.6886 14.332 67.3126 11.92 68.1526 9.736C68.9926 7.552 70.0006 5.812 71.1766 4.516C72.3766 3.22 73.6606 2.572 75.0286 2.572C76.0366 2.572 76.8286 3.016 77.4046 3.904C77.9806 4.792 78.2686 5.908 78.2686 7.252C78.2686 10.972 76.7086 14.212 73.5886 16.972H77.6206C78.0046 16.972 78.2806 17.056 78.4486 17.224C78.6166 17.392 78.7006 17.704 78.7006 18.16C78.7006 19.816 77.3446 20.644 74.6326 20.644H70.2406C70.1926 21.844 70.1686 22.78 70.1686 23.452C70.1686 25.948 70.4566 27.7 71.0326 28.708C71.6326 29.716 72.5686 30.22 73.8406 30.22C74.8726 30.22 75.7846 29.908 76.5766 29.284C77.3686 28.66 78.3046 27.724 79.3846 26.476C79.6726 26.14 79.9966 25.972 80.3566 25.972ZM74.0566 6.028C73.6966 6.028 73.2886 6.484 72.8326 7.396C72.4006 8.284 71.9806 9.532 71.5726 11.14C71.1886 12.724 70.8646 14.488 70.6006 16.432C72.0166 15.208 73.0726 13.84 73.7686 12.328C74.4886 10.792 74.8486 9.4 74.8486 8.152C74.8486 6.736 74.5846 6.028 74.0566 6.028Z" fill="#EC5A13"/>
<path d="M53.6187 34.18C52.1307 34.18 50.9427 33.64 50.0547 32.56C49.1667 31.48 48.7227 30.064 48.7227 28.312C48.7227 26.392 49.1667 24.58 50.0547 22.876C50.9427 21.148 52.1187 19.768 53.5827 18.736C55.0707 17.68 56.6427 17.152 58.2987 17.152C58.8267 17.152 59.1747 17.26 59.3427 17.476C59.5347 17.668 59.6907 18.028 59.8107 18.556C60.3147 18.46 60.8427 18.412 61.3947 18.412C62.5707 18.412 63.1587 18.832 63.1587 19.672C63.1587 20.176 62.9787 21.376 62.6187 23.272C62.0667 26.032 61.7907 27.952 61.7907 29.032C61.7907 29.392 61.8747 29.68 62.0427 29.896C62.2347 30.112 62.4747 30.22 62.7627 30.22C63.2187 30.22 63.7707 29.932 64.4187 29.356C65.0667 28.756 65.9427 27.796 67.0467 26.476C67.3347 26.14 67.6587 25.972 68.0187 25.972C68.3307 25.972 68.5707 26.116 68.7387 26.404C68.9307 26.692 69.0267 27.088 69.0267 27.592C69.0267 28.552 68.7987 29.296 68.3427 29.824C67.3587 31.048 66.3147 32.08 65.2107 32.92C64.1067 33.76 63.0387 34.18 62.0067 34.18C61.2147 34.18 60.4827 33.916 59.8107 33.388C59.1627 32.836 58.6707 32.092 58.3347 31.156C57.0867 33.172 55.5147 34.18 53.6187 34.18ZM54.9147 30.544C55.4427 30.544 55.9467 30.232 56.4267 29.608C56.9067 28.984 57.2547 28.156 57.4707 27.124L58.8027 20.5C57.7947 20.524 56.8587 20.908 55.9947 21.652C55.1547 22.372 54.4827 23.332 53.9787 24.532C53.4747 25.732 53.2227 27.004 53.2227 28.348C53.2227 29.092 53.3667 29.644 53.6547 30.004C53.9667 30.364 54.3867 30.544 54.9147 30.544Z" fill="#EC5A13"/>
<path d="M53.0897 25.972C53.4017 25.972 53.6417 26.116 53.8097 26.404C54.0017 26.692 54.0977 27.088 54.0977 27.592C54.0977 28.552 53.8697 29.296 53.4137 29.824C52.5257 30.904 51.2657 31.9 49.6337 32.812C48.0257 33.724 46.2977 34.18 44.4497 34.18C41.9297 34.18 39.9737 33.496 38.5817 32.128C37.1897 30.76 36.4937 28.888 36.4937 26.512C36.4937 24.856 36.8417 23.32 37.5377 21.904C38.2337 20.464 39.1937 19.324 40.4177 18.484C41.6657 17.644 43.0697 17.224 44.6297 17.224C46.0217 17.224 47.1377 17.644 47.9777 18.484C48.8177 19.3 49.2377 20.416 49.2377 21.832C49.2377 23.488 48.6377 24.916 47.4377 26.116C46.2617 27.292 44.2577 28.228 41.4257 28.924C42.0257 30.028 43.1657 30.58 44.8457 30.58C45.9257 30.58 47.1497 30.208 48.5177 29.464C49.9097 28.696 51.1097 27.7 52.1177 26.476C52.4057 26.14 52.7297 25.972 53.0897 25.972ZM44.0177 20.752C43.1297 20.752 42.3737 21.268 41.7497 22.3C41.1497 23.332 40.8497 24.58 40.8497 26.044V26.116C42.2657 25.78 43.3817 25.276 44.1977 24.604C45.0137 23.932 45.4217 23.152 45.4217 22.264C45.4217 21.808 45.2897 21.448 45.0257 21.184C44.7857 20.896 44.4497 20.752 44.0177 20.752Z" fill="#EC5A13"/>
<path d="M36.0641 25.972C36.3761 25.972 36.6161 26.116 36.7841 26.404C36.9761 26.692 37.0721 27.088 37.0721 27.592C37.0721 28.528 36.8441 29.272 36.3881 29.824C34.0121 32.728 31.4801 34.18 28.7921 34.18C26.4641 34.18 24.6041 33.28 23.2121 31.48C21.8201 29.68 21.1241 27.1 21.1241 23.74C21.1241 22.924 21.1601 22.108 21.2321 21.292C19.6481 21.58 17.9201 21.796 16.0481 21.94C14.8001 22.036 13.9481 22.096 13.4921 22.12C13.0121 24.568 12.3401 27.568 11.4761 31.12C10.9721 33.208 10.0121 34.252 8.59607 34.252C7.06007 34.252 6.29207 33.556 6.29207 32.164C6.29207 31.852 6.35207 31.42 6.47207 30.868C7.28807 27.58 7.93607 24.796 8.41607 22.516L6.68807 22.588C5.89607 22.588 5.32007 22.456 4.96007 22.192C4.60007 21.904 4.42007 21.448 4.42007 20.824C4.42007 20.032 4.64807 19.456 5.10407 19.096C5.56007 18.712 6.31607 18.496 7.37207 18.448L9.28007 18.376C9.90407 14.992 10.2161 12.412 10.2161 10.636C10.2161 9.508 10.0481 8.74 9.71207 8.332C9.37607 7.924 8.93207 7.72 8.38007 7.72C6.70007 7.72 4.80407 9.124 2.69207 11.932C2.38007 12.34 2.03207 12.544 1.64807 12.544C1.31207 12.544 1.02407 12.388 0.784072 12.076C0.544072 11.764 0.424072 11.368 0.424072 10.888C0.424072 10.144 0.724072 9.352 1.32407 8.512C2.38007 7.048 3.71207 5.848 5.32007 4.912C6.92807 3.952 8.56007 3.472 10.2161 3.472C11.7761 3.472 12.9761 4.012 13.8161 5.092C14.6801 6.148 15.1121 7.804 15.1121 10.06C15.1121 12.052 14.8241 14.752 14.2481 18.16L17.7761 17.98C19.2881 17.908 20.5841 17.788 21.6641 17.62C22.0961 14.98 22.7561 12.508 23.6441 10.204C24.5321 7.9 25.6361 6.028 26.9561 4.588C28.2761 3.148 29.7521 2.428 31.3841 2.428C32.5841 2.428 33.5321 2.908 34.2281 3.868C34.9241 4.804 35.2721 6.04 35.2721 7.576C35.2721 13.528 32.2361 17.656 26.1641 19.96C26.0921 20.92 26.0561 21.916 26.0561 22.948C26.0561 25.468 26.3681 27.256 26.9921 28.312C27.6161 29.368 28.4921 29.896 29.6201 29.896C30.6041 29.896 31.5041 29.644 32.3201 29.14C33.1361 28.612 34.0601 27.724 35.0921 26.476C35.3801 26.14 35.7041 25.972 36.0641 25.972ZM31.2041 5.56C30.6761 5.56 30.1121 6.04 29.5121 7C28.9361 7.96 28.3841 9.268 27.8561 10.924C27.3281 12.58 26.9081 14.392 26.5961 16.36C28.5161 15.568 29.9321 14.44 30.8441 12.976C31.7561 11.512 32.2121 9.628 32.2121 7.324C32.2121 6.772 32.1161 6.34 31.9241 6.028C31.7321 5.716 31.4921 5.56 31.2041 5.56Z" fill="#EC5A13"/>
</svg>
