<svg width="43" height="43" viewBox="0 0 43 43" fill="none" xmlns="http://www.w3.org/2000/svg">
<path d="M38.64 29.544C38.952 29.544 39.192 29.688 39.36 29.976C39.552 30.264 39.648 30.66 39.648 31.164C39.648 32.1 39.42 32.844 38.964 33.396C36.588 36.3 34.056 37.752 31.368 37.752C29.04 37.752 27.18 36.852 25.788 35.052C24.396 33.252 23.7 30.672 23.7 27.312C23.7 26.496 23.736 25.68 23.808 24.864C22.224 25.152 20.496 25.368 18.624 25.512C17.376 25.608 16.524 25.668 16.068 25.692C15.588 28.14 14.916 31.14 14.052 34.692C13.548 36.78 12.588 37.824 11.172 37.824C9.636 37.824 8.868 37.128 8.868 35.736C8.868 35.424 8.928 34.992 9.048 34.44C9.864 31.152 10.512 28.368 10.992 26.088L9.264 26.16C8.472 26.16 7.896 26.028 7.536 25.764C7.176 25.476 6.996 25.02 6.996 24.396C6.996 23.604 7.224 23.028 7.68 22.668C8.136 22.284 8.892 22.068 9.948 22.02L11.856 21.948C12.48 18.564 12.792 15.984 12.792 14.208C12.792 13.08 12.624 12.312 12.288 11.904C11.952 11.496 11.508 11.292 10.956 11.292C9.276 11.292 7.38 12.696 5.268 15.504C4.956 15.912 4.608 16.116 4.224 16.116C3.888 16.116 3.6 15.96 3.36 15.648C3.12 15.336 3 14.94 3 14.46C3 13.716 3.3 12.924 3.9 12.084C4.956 10.62 6.288 9.42 7.896 8.484C9.504 7.524 11.136 7.044 12.792 7.044C14.352 7.044 15.552 7.584 16.392 8.664C17.256 9.72 17.688 11.376 17.688 13.632C17.688 15.624 17.4 18.324 16.824 21.732L20.352 21.552C21.864 21.48 23.16 21.36 24.24 21.192C24.672 18.552 25.332 16.08 26.22 13.776C27.108 11.472 28.212 9.6 29.532 8.16C30.852 6.72 32.328 6 33.96 6C35.16 6 36.108 6.48 36.804 7.44C37.5 8.376 37.848 9.612 37.848 11.148C37.848 17.1 34.812 21.228 28.74 23.532C28.668 24.492 28.632 25.488 28.632 26.52C28.632 29.04 28.944 30.828 29.568 31.884C30.192 32.94 31.068 33.468 32.196 33.468C33.18 33.468 34.08 33.216 34.896 32.712C35.712 32.184 36.636 31.296 37.668 30.048C37.956 29.712 38.28 29.544 38.64 29.544ZM33.78 9.132C33.252 9.132 32.688 9.612 32.088 10.572C31.512 11.532 30.96 12.84 30.432 14.496C29.904 16.152 29.484 17.964 29.172 19.932C31.092 19.14 32.508 18.012 33.42 16.548C34.332 15.084 34.788 13.2 34.788 10.896C34.788 10.344 34.692 9.912 34.5 9.6C34.308 9.288 34.068 9.132 33.78 9.132Z" fill="#EC5A13"/>
</svg>
